<svg xmlns="http://www.w3.org/2000/svg" width="100%" height="auto" viewBox="0 0 1168 576" fill="none">
    <path d="M678.296 37.3077L680.037 40.9146L687.507 42.4163L696.956 43.0339L697.574 41.0409L690.357 36.3113L697.574 28.115L716.234 23.3853V21.2661H708.778L708.146 21.8977H696.591L684.895 27.3572L678.296 37.3077Z" fill="#C4D7EC" stroke="#FFFCF8" stroke-width="0.6" stroke-miterlimit="10"/>
    <path d="M760.152 11.3156L771.721 15.1751L784.414 15.7926V12.691L768.492 7.83496L760.152 11.3156Z" fill="#C4D7EC" stroke="#FFFCF8" stroke-width="0.6" stroke-miterlimit="10"/>
    <path d="M786.9 13.5612V18.6557H791.014L799.592 17.1681V15.7927L791.884 13.5612H786.9Z" fill="#C4D7EC" stroke="#FFFCF8" stroke-width="0.6" stroke-miterlimit="10"/>
    <path d="M890.658 23.8765L891.275 26.6132L899.616 28.7325L911.929 27.3571V25.2519L890.658 23.8765Z" fill="#C4D7EC" stroke="#FFFCF8" stroke-width="0.6" stroke-miterlimit="10"/>
    <path d="M915.791 26.3047V27.6099L928.469 28.7327V26.3047H915.791Z" fill="#C4D7EC" stroke="#FFFCF8" stroke-width="0.6" stroke-miterlimit="10"/>
    <path d="M909.193 29.9675V32.4657L918.642 33.8271V32.592L909.193 29.9675Z" fill="#C4D7EC" stroke="#FFFCF8" stroke-width="0.6" stroke-miterlimit="10"/>
    <path d="M1022.71 40.6339L1025.7 42.7812L1032.79 41.7146V39.8901L1026.82 39.1462L1022.71 40.6339Z" fill="#C4D7EC" stroke="#FFFCF8" stroke-width="0.6" stroke-miterlimit="10"/>
    <path d="M993.125 104.716L1016.7 128.266L1015.62 128.87L1012.91 126.161H1010.21L1012.26 132.505L1020.38 138.933L1019.25 139.41L1016 137.908L1016.36 140.617H1014.97L1011.14 136.8L1010.11 131.382L1007.36 128.631L1001.54 120.94V118.793L997.056 115.804L996.214 113.011L993.125 110.12L994.346 108.169L991.917 105.362L993.125 104.716Z" fill="#C4D7EC" stroke="#FFFCF8" stroke-width="0.6" stroke-miterlimit="10"/>
    <path d="M1061.84 62.1771L1064.7 61.5596L1080.37 66.5279L1083.24 64.535L1078.76 61.7982L1080.88 61.1807L1079.64 58.6965L1067.69 54.7107H1061.6L1022.29 45.8829L1007.62 44.6338L1010.84 47.2443L1009.48 48.6056L1000.15 45.0549H975.702L973.034 42.3883L954.739 42.0093L941.19 39.1463V37.5323L913.811 35.1745L915.426 40.0305L895.896 38.1638V42.3883L878.724 32.0728H865.905V34.6832L851.598 32.8166L832.559 31.6939L819.74 34.9359V34.0657L831.562 27.9747V26.3607L824.977 22.7538H810.797V21.2661H804.703V19.7784H795.619V23.1327L765.755 27.8624L767.243 32.5921H752.936L756.544 36.5779L755.295 37.9533L750.563 36.7042L745.831 37.827L740.987 33.2236H739.626L741.493 37.0832L739.008 39.0761L744.736 47.2864L753.568 48.0302L757.668 52.7599L756.558 53.5037L752.95 50.1494H748.597L745.242 58.6123L741.886 57.251L744.498 50.781L740.145 48.9144L736.916 42.3181L734.557 39.9603V34.8657H724.237V38.8515L722.749 40.3392L723.128 45.1952L731.833 49.0547L730.836 51.9178L720.264 47.4408L701.604 42.5848L701.113 44.704L709.073 48.6898L705.465 51.4266L703.85 48.0723L694.963 50.2477L693.783 51.4266H690.428V48.9425L674.871 54.1634V56.6756H669.929L667.907 54.6546V52.6055H670.21L667.907 50.3038H663.428V54.7809L665.913 56.03L664.916 59.1457L659.567 57.658L654.344 61.5175L656.45 64.9981L645.877 62.7666L645.372 64.7595L649.851 66.0086L649.977 68.0015L640.893 65.756L639.77 60.4088L632.932 56.8019V55.3142L652.533 60.479L656.45 56.5633L655.088 53.3353L639.04 48.1144L625.968 45.7566V45.5601L620.619 47.8758V51.4827L624.789 52.7318L622.486 56.7177L626.221 60.8158V65.1665L627.962 66.9068V69.2646L631.318 72.6189V74.3312L624.101 80.2117L625.968 82.0783H629.324V83.4537H626.333L623.23 85.0536L623.286 86.4992L621.672 87.8044L623.722 91.664L622.36 92.6043V94.0358H624.48V95.7761L625.968 98.7655L634.547 100.45V103.874L641.146 108.225V110.583H636.849V115.312H646.186L652.87 121.993H659.188L661.097 123.902H668.146V131.663H663.414V135.817L666.77 135.017V136.252L664.284 137.866H662.361V138.736L664.411 140.098L662.67 141.22V142.905L660.802 143.396L665.281 146.231H667.795C667.795 146.231 670.238 148.673 672.709 151.143L674.534 150.736L685.612 154.904H689.529L696.437 158.02L699.666 161.192L702.306 158.244L697.504 153.739V149.389L693.769 147.775V145.164L696.634 142.301H698.627L701.169 139.747L695.567 134.147H692.028V130.849H689.543V123.017L691.79 120.772L695.454 124.435L696.886 123.003L694.528 120.646L702.109 116.547H707.712L718.663 121.277L720.896 119.032H726.863L729.039 121.207H736.691V117.656L731.468 115.79L733.083 111.06L731.594 108.07L732.956 106.583L754.228 101.109L761.065 101.236L763.93 106.092H772.761V109.32H776.117L781.41 104.028V106.821L798.02 120.253L800.631 118.077L803.369 120.632L809.589 119.509L816.497 126.414H822.029L827.252 127.593L838.204 120.688H846.038V123.677H858.352V119.761L856.484 117.895V113.979L869.542 118.077L873.951 122.484H879.061L880.704 120.842L892.315 124.603L894.73 126.835H909.22L912.955 123.102L925.507 125.909L928.498 122.779V113.965L925.507 110.976L927.655 108.828H941.19L958.123 125.754H966.014L974.017 133.754H979.83V130.189H986.737V143.985H980.953L986.808 153.739L987.861 152.687H996.945L1002.17 130.175L995.583 115.13L991.722 110.274L980.405 105.306V108.407L966.351 103.804L974.564 84.1554H998.082L1003.07 85.8957V88.2676L1011.52 85.6571V84.0431H1007.78V74.9627H1016.74L1021.47 79.6924L1025.08 76.0855L1022.96 73.0961L1026.82 72.9698L1030.18 78.0644L1026.95 86.7659L1028.56 88.3799L1025.39 96.3936L1048.59 119.579L1052.76 115.411L1050.58 113.235L1053.57 110.246L1049.33 106.021H1052.88V104.099L1049.15 100.365L1050.94 98.555L1043.98 91.0885H1039.88L1035.53 82.5134H1040.88L1042.24 83.8747H1044.23V81.4467H1054.5L1062.4 73.5452L1069.98 74.4154L1070.11 72.8014L1055.93 65.8402L1058.54 63.4824L1054.68 60.7456L1056.55 59.7491L1061.9 62.2333L1061.84 62.1771ZM886.671 110.484L882.192 114.218V116.084L877.348 117.951L873.614 116.084L879.019 114.4V112.351L880.887 110.484L883.414 107.972V100.043H884.621L886.671 105.825V110.484Z" fill="#4175B9" stroke="#FFFCF8" stroke-width="0.6" stroke-miterlimit="10"/>
    <path d="M1015.68 155.073L1021.02 159.802L1024.27 157.431L1019.54 155.452L1023.52 154.455L1030.24 157.431L1030.36 154.203L1034.97 151.718L1031.23 147.606L1018.05 142.891H1015.68L1020.38 151.339H1017.05L1015.68 155.073Z" fill="#C4D7EC" stroke="#FFFCF8" stroke-width="0.6" stroke-miterlimit="10"/>
    <path d="M1033.81 168.378L1025.32 159.297L1021.66 161.164V166.02H1025.32V173.472L1019.8 179.002L1018.29 177.823V184.419L1015.18 183.675L1007.71 184.419L1002.87 190.019V192.124L1000.01 194.987L1008.22 203.198L1010.27 201.148V195.605L1005.48 192.629L1013.44 188.896H1018.43V191.633L1021.35 194.552L1026.82 189.079H1031.61V186.033H1034.97V182.426L1033.81 181.275V168.378Z" fill="#C4D7EC" stroke="#FFFCF8" stroke-width="0.6" stroke-miterlimit="10"/>
    <path d="M1011.52 191.128V192.054H1013.39V190.51H1015.66L1017.53 192.377L1015.66 194.243H1013.75V196.714H1011.88L1010.26 193.359V191.352L1011.52 191.128Z" fill="#C4D7EC" stroke="#FFFCF8" stroke-width="0.6" stroke-miterlimit="10"/>
    <path d="M833.048 296.093V308.022L835.295 312.499L840.897 309.524V305.047L835.168 296.093H833.048Z" fill="#C4D7EC" stroke="#FFFCF8" stroke-width="0.6" stroke-miterlimit="10"/>
    <path d="M991.398 279.673L998.081 284.711L1000.31 280.795L994.529 276.136L990.429 277.062L987.818 273.146V268.852H990.05L991.356 264.192L989.124 258.915L982.468 257.849V267.926H980.531L985.206 278.367L991.398 279.673Z" fill="#C4D7EC" stroke="#FFFCF8" stroke-width="0.6" stroke-miterlimit="10"/>
    <path d="M987.312 284.711H988.94V280.543L984.574 279.42L987.312 284.711Z" fill="#C4D7EC" stroke="#FFFCF8" stroke-width="0.6" stroke-miterlimit="10"/>
    <path d="M993.293 295.967L997.14 299.7L1002.36 295.461L998.825 290.058L997.014 291.869L991.917 286.76V292.739H995.905V295.967H993.293Z" fill="#C4D7EC" stroke="#FFFCF8" stroke-width="0.6" stroke-miterlimit="10"/>
    <path d="M1002.18 287.069L1000.31 288.935L1004.36 293.974L1007.1 290.62L1005.35 288.879V285.89L1003.61 283.897L1000.31 284.711L1002.18 287.069Z" fill="#C4D7EC" stroke="#FFFCF8" stroke-width="0.6" stroke-miterlimit="10"/>
    <path d="M1010.83 305.412L1007.1 294.718L1004.61 295.349L1005.58 298.788L1002.36 302.002H996.453L991.3 307.152H992.662L995.035 304.795H1000.85V309.609L1004.61 313.37H1006.1V306.409H1009.59V310.142L1010.83 305.412Z" fill="#C4D7EC" stroke="#FFFCF8" stroke-width="0.6" stroke-miterlimit="10"/>
    <path d="M975.252 302.928L985.389 292.795L983.213 290.619L974.634 301.44L975.252 302.928Z" fill="#C4D7EC" stroke="#FFFCF8" stroke-width="0.6" stroke-miterlimit="10"/>
    <path d="M1098.09 536.156L1104.82 538.022L1140.27 518.809V514.697H1136.73L1136.53 512.086L1098.09 536.156Z" fill="#C4D7EC" stroke="#FFFCF8" stroke-width="0.6" stroke-miterlimit="10"/>
    <path d="M1143.26 514.893L1145.31 516.76L1166.96 500.901L1165.09 499.217L1160.05 500.901L1156.5 499.217L1158.56 496.045L1156.7 489.154L1152.96 487.343V497.168L1143.64 506.501L1146.61 510.22L1143.26 514.893Z" fill="#C4D7EC" stroke="#FFFCF8" stroke-width="0.6" stroke-miterlimit="10"/>
    <path d="M1025.39 389.353L1027.24 387.866V385.873H1022.27L1022.96 386.925L1025.39 389.353Z" fill="#4175B9" stroke="#FFFCF8" stroke-width="0.6" stroke-miterlimit="10"/>
    <path d="M1090.27 440.089V433.562H1087.65V424.047L1078.88 415.289V401.297H1072.72V389.536H1070.29V383.206H1067.3L1063.45 396.623V402.041L1059.47 414.349H1055.75L1041.83 400.455L1048.64 390.855L1046.59 388.048L1043.42 389.915L1031.3 386.925L1031.23 391.22H1024.27L1017.67 397.816V402.167H1013.01L1008.5 397.662L989.432 411.121V416.595L954.598 432.51L950.625 442.699L953.363 448.916L949.375 452.411V478.768L946.974 481.154V485.729L950.161 488.915H958.824L965.269 482.473H977.989L981.317 479.147L1009.47 474.038L1018.54 477.519V488.915L1020.11 487.357L1029.9 477.561L1031.23 479.638L1023.45 488.915L1024.95 490.08L1029.42 486.529L1027 491.568H1031.23V502.052L1040.06 504.999L1045.48 502.052L1049.02 504.999L1064.7 499.217L1069.36 491.947L1084.67 478.136L1095.3 459.484V445.127L1090.27 440.089Z" fill="#4175B9" stroke="#FFFCF8" stroke-width="0.6" stroke-miterlimit="10"/>
    <path d="M1044.41 515.37L1039.5 512.269L1036.89 514.893V520.016L1035.68 520.942V525.153H1039.98L1042.53 522.584H1044.08L1052.02 514.627L1050.14 513.209L1044.41 515.37Z" fill="#4175B9" stroke="#FFFCF8" stroke-width="0.6" stroke-miterlimit="10"/>
    <path d="M1105.94 358.575H1104.63L1102.95 360.947H1092.5L1093.43 364.076H1097.45L1099.03 365.662L1105.46 362.126H1108.37V356.245H1105.94V358.575Z" fill="#C4D7EC" stroke="#FFFCF8" stroke-width="0.6" stroke-miterlimit="10"/>
    <path d="M1103.41 349.621L1110.5 355.038V358.112H1112.19V354.379L1103.41 348.231V349.621Z" fill="#C4D7EC" stroke="#FFFCF8" stroke-width="0.6" stroke-miterlimit="10"/>
    <path d="M1116.75 360.259L1120.21 367.992H1122.35V364.82L1118.16 359.782L1116.75 360.259Z" fill="#C4D7EC" stroke="#FFFCF8" stroke-width="0.6" stroke-miterlimit="10"/>
    <path d="M1123.9 365.522L1123.76 367.347L1127.21 370.14H1129.64V369.298H1127.68L1123.9 365.522Z" fill="#C4D7EC" stroke="#FFFCF8" stroke-width="0.6" stroke-miterlimit="10"/>
    <path d="M1136.53 374.897V372.526L1133.08 370.14H1131.03V371.445H1133.36L1135.14 374.897H1136.53Z" fill="#C4D7EC" stroke="#FFFCF8" stroke-width="0.6" stroke-miterlimit="10"/>
    <path d="M1123.76 373.213L1127.49 376.301H1129.64V374.532L1123.76 370.799V373.213Z" fill="#C4D7EC" stroke="#FFFCF8" stroke-width="0.6" stroke-miterlimit="10"/>
    <path d="M1134.77 379.753H1139.34V378.35L1134.77 376.946V379.753Z" fill="#C4D7EC" stroke="#FFFCF8" stroke-width="0.6" stroke-miterlimit="10"/>
    <path d="M1096.29 378.785V376.918H1093.19L1087.46 366.968H1091.82L1090.58 363.487L1084.11 361.003L1083.24 357.017L1080.12 355.038H1079.01L1066.94 349.48V377.985L1071.54 378.532L1075.64 371.318L1084.23 373.185L1089.95 382.518H1096.42L1099.9 384.75L1101.03 382.139L1098.04 378.785H1096.29Z" fill="#C4D7EC" stroke="#FFFCF8" stroke-width="0.6" stroke-miterlimit="10"/>
    <path d="M691.297 159.494L693.726 160.981H696.029V160.392L695.046 159.409L694.681 157.094L689.486 154.764H685.569L674.491 150.596L672.666 151.003C675.137 153.473 677.636 155.971 677.734 156.069C677.917 156.252 677.734 157.936 677.734 157.936L676.246 159.424H681.651L683.519 161.29H689.43L691.297 159.494Z" fill="#C4D7EC" stroke="#FFFCF8" stroke-width="0.6" stroke-miterlimit="10"/>
    <path d="M690.904 167.578L691.536 166.778L694.934 168.925L695.299 170.679L697.391 170.553L696.956 167.507L693.726 166.272L694.653 165.15L690.609 161.29H689.43H683.519L684.207 161.978L687.998 169.837L690.497 167.016L690.904 167.578Z" fill="#4175B9" stroke="#FFFCF8" stroke-width="0.6" stroke-miterlimit="10"/>
    <path d="M691.538 166.778L690.906 167.578L693.293 170.806L695.3 170.679L694.935 168.925L691.538 166.778Z" fill="#C4D7EC" stroke="#FFFCF8" stroke-width="0.6" stroke-miterlimit="10"/>
    <path d="M702.264 158.09L699.639 161.037L696.395 157.88L694.682 157.094L695.047 159.409L696.03 160.392V160.981H693.728L691.299 159.494L689.431 161.29H690.611L694.654 165.15L693.728 166.272L696.957 167.507L697.35 170.3L700.748 167.129L702.994 167.69L702.587 171.213L705.044 172.392V170.118L706.603 168.56V165.515L708.863 164.279L702.264 158.09Z" fill="#C4D7EC" stroke="#FFFCF8" stroke-width="0.6" stroke-miterlimit="10"/>
    <path d="M725.697 257.329H715.153L707.683 264.781L706.167 263.266L692.983 262.269V265.75L691.158 267.49L691.242 267.616L695.707 283.153L727.185 270.479V267.616L730.527 265.764L726.357 256.992L725.697 257.329Z" fill="#4175B9" stroke="#FFFCF8" stroke-width="0.6" stroke-miterlimit="10"/>
    <path d="M737.857 230.902H740.735L738.881 226.453L731.173 235.028H724.181L726.568 239.505L736.017 240.249L736.031 240.263L737.857 234.72V230.902Z" fill="#C4D7EC" stroke="#FFFCF8" stroke-width="0.6" stroke-miterlimit="10"/>
    <path d="M754.311 241.007L749.327 235.898L741.745 233.288L740.734 230.902H737.856V234.719L736.031 240.263L738.628 243L736.649 251.813L726.357 256.992L730.527 265.764L747.347 256.417L754.311 241.007Z" fill="#4175B9" stroke="#FFFCF8" stroke-width="0.6" stroke-miterlimit="10"/>
    <path d="M721.836 232.277V224.839H719.729L718.185 228.895L720.277 233.049L721.836 232.277Z" fill="#C4D7EC" stroke="#FFFCF8" stroke-width="0.6" stroke-miterlimit="10"/>
    <path d="M702.206 212.895L695.312 212.334L679.166 199.661H674.125L667.597 202.734L670.124 205.625L669.183 208.699H666.473L664.325 212.895L659.06 211.38L658.021 217.625H661.503L691.156 267.49L692.982 265.75V262.269L706.166 263.266L707.682 264.781L715.152 257.329H725.696L736.647 251.813L738.627 243L736.016 240.249L726.566 239.505L724.18 235.028H723.702L721.835 233.161V232.277L720.276 233.049L718.184 228.895L717.988 229.442L709.521 215.379V209.387L703.989 208.517L702.206 212.895Z" fill="#4175B9" stroke="#FFFCF8" stroke-width="0.6" stroke-miterlimit="10"/>
    <path d="M663.159 193.401V191.212H664.1V190.005L660.969 187.857V189.205L658.708 195.759H660.815L663.159 193.401Z" fill="#C4D7EC" stroke="#FFFCF8" stroke-width="0.6" stroke-miterlimit="10"/>
    <path d="M660.971 195.604L660.816 195.759H658.71L655.846 204.039H655.748L659.145 210.902L659.061 211.379L659.581 211.534L660.971 204.18V195.604Z" fill="#C4D7EC" stroke="#FFFCF8" stroke-width="0.6" stroke-miterlimit="10"/>
    <path d="M664.452 199.057H666.109L679.911 189.836V183.984V182.707V180.812H681.596L684.333 178.075H683.28H677.047L674.561 180.573H663.118L660.97 182.707V187.857L664.101 190.005V191.212H663.161V193.401L660.97 195.604V196.854H662.248L664.452 199.057Z" fill="#C4D7EC" stroke="#FFFCF8" stroke-width="0.6" stroke-miterlimit="10"/>
    <path d="M706.967 204.446H705.858V200.152L703.921 198.229H702.488L700.565 196.292H698.361V194.833L695.342 191.815V189.022L696.956 187.408H698.262V186.847L697.392 185.977V183.114H694.907L691.691 178.075H689.992H688.743H684.334L681.596 180.812H679.911V182.707V183.984V189.836L672.259 194.945L674.225 199.661H679.167L695.314 212.334L702.208 212.895L703.991 208.516L709.523 209.387V209.316L706.967 206.874V204.446Z" fill="#C4D7EC" stroke="#FFFCF8" stroke-width="0.6" stroke-miterlimit="10"/>
    <path d="M761.401 223.099H764.883V219.983H761.892V215.015H759.899L753.496 208.601L756.543 205.555V202.454H753.679L751.699 194.243L750.702 193.247V180.56H748.217L739.259 175.591H735.524V173.851H727.437V177.332H724.011V178.707L717.609 180.56L710.518 176.84H707.163L705.043 172.855V172.602V172.391L702.586 171.212L702.993 167.69L700.746 167.128L697.349 170.3L697.391 170.553L695.299 170.679L693.291 170.805L690.904 167.578L690.497 167.016L687.998 169.837L691.985 178.075H691.69L694.905 183.114H697.391V185.977L698.261 186.847V187.408H696.955L695.341 189.022V191.815L698.359 194.833V196.292H700.564L702.487 198.229H703.919L705.857 200.152V204.447H706.966V206.875L709.522 209.317V208.11H714.688L720.656 218.06L723.927 218.313L730.301 223.716H737.757V221.597H742.489V225.204L759.042 228.404V225.456L761.401 223.099Z" fill="#C4D7EC" stroke="#FFFCF8" stroke-width="0.6" stroke-miterlimit="10"/>
    <path d="M823.698 129.979V126.667L821.985 126.274H816.453L809.545 119.369L803.325 120.491L800.588 117.937L797.976 120.113L781.366 106.681V103.888L776.073 109.18H772.717V105.952H763.886L761.022 101.096L754.184 100.969L732.913 106.443L731.551 107.93L733.039 110.92L731.424 115.649L736.647 117.516V121.067H728.995L726.819 118.892H720.852L718.619 121.137L707.668 116.407H702.066L694.484 120.505L696.843 122.863L695.411 124.295L691.746 120.632L689.5 122.877V130.709H691.985V134.007H695.523L701.125 139.607L701.869 138.863L707.036 136.196H713.747L716.05 138.498V142.793H709.016L705.786 146.02V147.634H708.019L712.877 152.49H716.05V155.718L716.977 158.834L717.721 156.35H720.206L720.304 156.561L722.073 155.859L724.811 157.852L726.426 160.462H728.293L724.938 144.673L734.022 142.315L736.072 143.438L734.948 140.757L736.072 138.33L738.501 139.256L742.053 145.038L741.323 146.315L743.724 147.649L747.458 151.382H758.031L761.387 154.736V156.982H764.869V160.967H770.471V163.83H773.714L779.681 155.747V154.006H787.404V152.392H790.141L791.84 154.09H805.951L811.427 155.761L812.424 151.789L807.201 144.701L811.679 143.087L815.541 143.859V142.343L813.926 140.729V135.635H822.631V133.895L821.016 132.267V130.063H823.726L823.698 129.979ZM801.205 137.347H789.257L786.21 140.393L786.463 144.617L783.107 142.75V138.273L785.845 135.537H801.205V137.333V137.347Z" fill="#C4D7EC" stroke="#FFFCF8" stroke-width="0.6" stroke-miterlimit="10"/>
    <path d="M757.974 185.724V183.619L763.071 181.556V177.023H768.673V173.233H764.882L757.132 169.346L748.216 160.42H741.645V158.034L737.953 154.329H734.962V156.63H732.73V160.42L728.237 160.055L728.307 160.42H726.44L724.825 157.809L722.087 155.816L720.318 156.518L721.343 158.806L723.954 160.799L723.449 162.777H717.861V166.146H720.346L724.011 169.809V177.331H727.436V173.851H735.524V175.591H739.259L748.216 180.559H750.701V184.04L755.363 185.724H757.974Z" fill="#C4D7EC" stroke="#FFFCF8" stroke-width="0.6" stroke-miterlimit="10"/>
    <path d="M774.993 174.104L770.416 168.967V167.016H774.052L778.728 161.697L780.679 162.778L779.556 163.774L781.241 165.206H785.411L788.149 162.469L782.673 159.241V160.855L778.194 159.241L780.44 156.757L779.359 156.139L773.715 163.774H770.486V160.925H764.884V156.939H761.402V154.694L758.046 151.339H747.473L743.739 147.606L741.324 146.287L739.625 149.29L735.89 148.392L736.831 145.192L736.087 143.396L734.037 142.273L724.953 144.631L728.238 160.055L732.731 160.42V156.63H734.963V154.329H737.954L741.647 158.034V160.42H748.218L757.133 169.346L764.884 173.233H768.675V176.265L773.027 177.64L774.993 174.104Z" fill="#C4D7EC" stroke="#FFFCF8" stroke-width="0.6" stroke-miterlimit="10"/>
    <path d="M514.948 105.741H513.558L512.533 106.765L510.596 105.46L514.246 102.106H509.796V104.52L508.237 106.078H503.505V108.941L505.246 110.681L499.56 116.365L501.764 118.569H507.423L511.34 114.667H515.201L516.633 110.344V107.636L517.504 106.765H514.948V105.741Z" fill="#C4D7EC" stroke="#FFFCF8" stroke-width="0.6" stroke-miterlimit="10"/>
    <path d="M517.503 106.765L520.058 104.211L517.938 102.106H514.246L510.595 105.46L512.533 106.765L513.558 105.741H514.948V106.765H517.503Z" fill="#C4D7EC" stroke="#FFFCF8" stroke-width="0.6" stroke-miterlimit="10"/>
    <path d="M541.822 113.165L540.951 110.344L539.589 111.804H536.346L537.848 109.558L534.858 104.001H533.706L531.221 101.502L528.455 98.7377V97.0675L531.628 93.8957V92.7729H524.903L527.641 90.0362V88.6748H524.033L521.042 91.6502H518.318V95.3834L517.195 96.5061V99.3692H516.451L517.686 100.604L518.43 99.8604V101.418H519.863L521.421 99.8604L522.235 100.674L520.621 102.288L521.674 103.341H525.647L526.153 107.074V110.344H520.93L521.421 112.295V115.032H519.189V116.52H521.295L523.667 117.263L527.023 116.52L525.156 118.358H521.702L516.451 123.607H518.065L522.362 122.063L524.033 120.379H526.279L527.515 121.628L537.722 120.253L539.954 117.895H538.087L541.822 113.165Z" fill="#C4D7EC" stroke="#FFFCF8" stroke-width="0.6" stroke-miterlimit="10"/>
    <path d="M515.327 92.394L518.065 90.1625L514.456 89.5449V91.4115L513.207 91.7764L514.456 95.0184L515.327 92.394Z" fill="#C4D7EC" stroke="#FFFCF8" stroke-width="0.6" stroke-miterlimit="10"/>
    <path d="M530.251 85.5591H527.892V87.4257H529.071L530.251 85.5591Z" fill="#C4D7EC" stroke="#FFFCF8" stroke-width="0.6" stroke-miterlimit="10"/>
    <path d="M569.693 16.4241L584.871 23.3853L592.087 16.4241L599.304 21.266L603.53 17.9118L595.064 14.4312H608.753V11.2032L593.084 9.9541L569.693 11.947V16.4241Z" fill="#C4D7EC" stroke="#FFFCF8" stroke-width="0.6" stroke-miterlimit="10"/>
    <path d="M599.206 48.4795H596.875L584.365 57.2371V59.202H582.034V61.8124L579.338 64.5211L580.448 65.5456V67.2859H576.039V81.5873L574.172 86.4292L572.417 87.4537L577.162 96.0008L576.418 98.3727L572.304 99.8604V102.976L576.165 102.723V101.474H577.401H582.259V98.499H587.608L590.43 89.8817L595.26 85.0678V84.2538L590.346 79.3417V73.5033L599.613 67.8473L601.916 65.5456L600.413 64.1702L603.657 60.9423H606.394V52.3952L599.206 48.4795Z" fill="#4175B9" stroke="#FFFCF8" stroke-width="0.6" stroke-miterlimit="10"/>
    <path d="M558.179 135.242V133.501L560.117 133.193L562.167 128.28L551.721 123.986L550.415 124.73L543.479 118.526L540.587 120.379V122.863L535.476 124.477V126.596L531.502 126.47V124.477L528.512 125.109L529.635 126.723V128.954L525.774 129.333L524.777 127.972L519.189 129.586L520.059 132.687L526.406 134.428L526.518 135.803L530.379 139.649L528.442 150.511L535.574 154.511L536.88 153.15L544.251 154.778V153.024L547.986 150.778L553.953 152.743H556.747L561.044 149.515L557.87 147.803V139.34H555.231V138.189L558.179 135.242Z" fill="#C4D7EC" stroke="#FFFCF8" stroke-width="0.6" stroke-miterlimit="10"/>
    <path d="M565.902 153.15V154.385H563.599V157.683L564.75 159.858H565.902V157.627H567.011V153.15H565.902Z" fill="#C4D7EC" stroke="#FFFCF8" stroke-width="0.6" stroke-miterlimit="10"/>
    <path d="M508.099 173.991L507.088 172.981V171.493L508.674 170.679L507.088 167.128H510.107V161.907L511.848 160.167V158.118H505.628V157.065H503.016V162.778L499.408 170.988L501.022 172.602V178.945L505.866 177.458H506.4V175.689L508.099 173.991Z" fill="#C4D7EC" stroke="#FFFCF8" stroke-width="0.6" stroke-miterlimit="10"/>
    <path d="M536.881 153.15L535.575 154.511L528.442 150.511L528.26 151.466L525.031 150.722H510.597L507.522 149.753L505.374 151.901H502.819L501.527 153.206L503.015 154.694V157.065H505.627V158.118H511.847V160.167L510.106 161.907V167.128H507.087L508.673 170.679L507.087 171.493V172.981L508.098 173.991L506.399 175.689V177.458H508.365L510.106 179.198V181.317L512.843 183.058L517.196 179.184H524.609L532.023 171.76V167.198L536.137 162.904V161.514L544.252 157.879V154.778L536.881 153.15Z" fill="#C4D7EC" stroke="#FFFCF8" stroke-width="0.6" stroke-miterlimit="10"/>
    <path d="M612.052 44.7041H616.966L620.953 46.2619L621.613 47.3005L625.923 45.4479V43.2866L611.237 41.5322L593.953 44.9005L585.487 49.2513V47.6373L581.261 50.4863H576.417V51.7354H581.514L581.457 52.9284L575.574 58.8229V61.9667L567.389 70.1349H565.213V68.8998L553.896 74.1207V86.9343L560.986 91.4114L569.692 86.808H572.05L572.415 87.4536L574.17 86.4291L576.038 81.5871V67.2858H580.446V65.5455L579.337 64.521L582.033 61.8123V59.2019H584.364V57.237L596.874 48.4794H599.205L601.311 49.6162H612.052V44.7041Z" fill="#4175B9" stroke="#FFFCF8" stroke-width="0.6" stroke-miterlimit="10"/>
    <path d="M627.919 69.1525V66.7806L626.164 65.0403V60.6896L622.443 56.5915L624.746 52.6056L620.576 51.3565V47.7637L621.615 47.3005L620.955 46.2619L616.967 44.7041H612.053V49.6162H601.312L606.395 52.3951V60.9422H610.817V63.6228L603.193 71.2577V78.261L608.388 83.4398L621.825 80.717L623.496 79.5241L624.058 80.0855L631.274 74.219V72.5068L627.919 69.1525Z" fill="#C4D7EC" stroke="#FFFCF8" stroke-width="0.6" stroke-miterlimit="10"/>
    <path d="M564.96 160.799L563.598 162.104H561.478V163.339L562.938 164.799V170.062H564.96V169.318H567.01V164.532L567.923 163.62L567.01 160.799H564.96Z" fill="#C4D7EC" stroke="#FFFCF8" stroke-width="0.6" stroke-miterlimit="10"/>
    <path d="M597.437 166.637L598.462 164.588L589.405 159.831L590.809 158.427L590.065 157.599L586.05 157.782L582.413 154.89L580.925 150.694L576.348 147.045L576.994 144.912L575.884 142.666L580.139 141.305V139.34L575.477 136.294L570.072 136.982L568.822 139.214L566.211 138.975L564.694 140.407L563.136 138.975L561.479 140.617H557.871V147.803L561.044 149.515L564.217 147.143L568.696 149.108L569.721 153.669L579.058 161.136L580.728 161.038L587.075 166.076L588.296 165.795L589.602 170.09L588.198 172.602L581.108 173.36L580.167 174.286L578.313 173.823L576.909 175.493L586.331 180.447L587.454 178.581L586.232 176.714L587.917 174.006L589.883 174.749L593.8 170.651V168.223L590.992 166.918L592.859 164.125L597.437 166.637Z" fill="#C4D7EC" stroke="#FFFCF8" stroke-width="0.6" stroke-miterlimit="10"/>
    <path d="M568.823 133.628H560.862L560.174 133.052L560.118 133.193L558.18 133.501V135.242L555.232 138.189V139.34H557.872V140.617H561.48L563.137 138.975L564.695 140.406L566.212 138.975L568.823 139.213L569.904 137.291L566.703 135.607L568.823 133.628Z" fill="#C4D7EC" stroke="#FFFCF8" stroke-width="0.6" stroke-miterlimit="10"/>
    <path d="M555.23 119.172L552.043 117.628L545.458 117.263L543.478 118.526L550.414 124.73L551.72 123.986L554.177 124.996L556.662 122.484L555.23 119.172Z" fill="#C4D7EC" stroke="#FFFCF8" stroke-width="0.6" stroke-miterlimit="10"/>
    <path d="M556.284 116.786H554.978V115.874H557.435L558.811 114.499V113.572H557.547V112.688H559.274V110.639L558.586 109.432H554.641L550.906 111.551V113.783L545.458 117.263L552.043 117.628L555.231 119.172L555.273 119.284L556.284 118.092V116.786Z" fill="#C4D7EC" stroke="#FFFCF8" stroke-width="0.6" stroke-miterlimit="10"/>
    <path d="M567.616 101.446L571.252 97.8113L570.382 96.9412L568.823 95.3833L570.185 94.022V92.5483H568.36L566.338 94.5693H564.4L562.224 96.7587V101.601L564.611 103.987L567.616 102.99V101.446Z" fill="#C4D7EC" stroke="#FFFCF8" stroke-width="0.6" stroke-miterlimit="10"/>
    <path d="M583.311 115.93V112.73L581.977 111.397L582.202 107.187L579.268 104.253H576.066L573.918 106.401H570.548L568.934 104.801L567.614 103.467V102.99L564.609 103.987L565.087 104.464V108.197H563.851V109.432H561.857V108.197H558.74V109.432H558.586L559.274 110.639V112.688H557.547V113.572H558.811V114.499L557.435 115.874H554.978V116.786H556.283V118.092L555.272 119.284L556.662 122.484L554.177 124.997L562.166 128.281L560.173 133.052L560.86 133.628H566.154H568.821L568.386 134.035L577.47 133.052L578.172 130.737L581.472 128.87L575.406 125.797V121.965L582.511 119.284H584.659V117.263L583.311 115.93Z" fill="#4175B9" stroke="#FFFCF8" stroke-width="0.6" stroke-miterlimit="10"/>
    <path d="M597.057 122.807V125.698L596.833 125.923H607.279L609.006 127.649H609.89V125.179L612.825 122.246H614.65V120.337L612.825 118.512V114.976H610.873V112.646H613.204V110.302L611.617 108.716V105.081H608.88H600.413L599.795 105.713H595.696V104.337H589.097L582.357 107.341L582.203 107.186L581.978 111.397L583.312 112.73V115.93L584.66 117.263V118.877L591.469 122.807H597.057Z" fill="#4175B9" stroke="#FFFCF8" stroke-width="0.6" stroke-miterlimit="10"/>
    <path d="M617.277 90.8499L619.397 92.9551H622.317V92.4639L623.679 91.5235L621.629 87.678L623.258 86.3728L623.202 84.9272L622.935 85.0676H612.11L607.631 87.8044L605.146 89.1657L606.143 90.5411L608.881 89.9096L609.625 88.5482L611.113 90.0359H612.981V91.7621L615.227 90.8499H617.277Z" fill="#C4D7EC" stroke="#FFFCF8" stroke-width="0.6" stroke-miterlimit="10"/>
    <path d="M584.66 128.028H587.174L591.582 129.417L592.916 129.853L596.833 125.923H596.763H596.833L597.058 125.698V122.807H591.47L584.66 118.877V119.284H582.512L575.408 121.965V125.797L581.473 128.87L580.49 129.432H584.66V128.028Z" fill="#4175B9" stroke="#FFFCF8" stroke-width="0.6" stroke-miterlimit="10"/>
    <path d="M609.315 103.285H606.395L605.707 102.288H604.457L602.814 102.695L600.414 105.081H608.88L609.315 103.285Z" fill="#C4D7EC" stroke="#FFFCF8" stroke-width="0.6" stroke-miterlimit="10"/>
    <path d="M586.486 140.954H587.609V139.648L589.322 137.95L589.519 136.533L588.003 138.034H580.954L579.705 139.059L580.14 139.34V141.304L581.109 140.996L581.291 142.329H586.486V140.954Z" fill="#C4D7EC" stroke="#FFFCF8" stroke-width="0.6" stroke-miterlimit="10"/>
    <path d="M588.002 138.035L589.518 136.533L589.926 136.126L592.453 131.817L591.582 129.417L587.174 128.028H584.66V129.431H580.49L578.174 130.737L577.472 133.052L568.388 134.035L566.703 135.607L569.904 137.291L570.072 136.982L575.478 136.294L579.704 139.059L580.954 138.035H588.002Z" fill="#4175B9" stroke="#FFFCF8" stroke-width="0.6" stroke-miterlimit="10"/>
    <path d="M587.778 145.725L591.218 143.887L599.179 144.322V140.617H597.367V141.585H594.573L589.322 137.95L587.609 139.648V140.954H586.486V142.329H581.291V142.385L580.083 143.887L583.439 146.582L584.282 144.448L585.489 148.645L597.76 155.437L591.835 149.795L587.778 145.725Z" fill="#C4D7EC" stroke="#FFFCF8" stroke-width="0.6" stroke-miterlimit="10"/>
    <path d="M606.394 97.3481H615.253L616.461 98.5551H617.963L619.915 100.52H620.996H623.467L625.699 98.1622L624.436 95.6359V93.8956H622.316V92.9553H619.395L617.275 90.8501H615.225L612.979 91.7624V96.0008H610.255L607.629 93.3763H604.793L602.533 95.6359V99.3691L603.038 100.127L603.403 98.2323L606.394 97.3481Z" fill="#C4D7EC" stroke="#FFFCF8" stroke-width="0.6" stroke-miterlimit="10"/>
    <path d="M617.219 106.485L617.964 106.976L618.989 106.064L618.287 105.32L618.989 102.976L621.46 102.288L620.996 100.52H619.915L617.964 98.5551H616.461L615.254 97.3481H606.394L603.404 98.2323L603.039 100.127L603.123 100.267L603.965 101.545L602.814 102.695L604.457 102.288H605.706L606.394 103.285H609.315L608.879 105.081H611.617V107.467H614.411L617.219 106.485Z" fill="#C4D7EC" stroke="#FFFCF8" stroke-width="0.6" stroke-miterlimit="10"/>
    <path d="M615.716 115.818H619.732L620.238 116.337H623.593L624.211 116.955H628.943L629.617 117.628H634.573V118.653H635.359V116.421L636.833 115.158H636.805V110.428H641.102V108.071L634.503 103.72V100.295L625.924 98.6112L625.699 98.1621L623.467 100.52H620.996L621.459 102.288L618.988 102.976L618.286 105.32L618.988 106.064L617.963 106.976L617.219 106.485L614.411 107.467H611.617V108.716L613.203 110.302V112.646H610.873V114.976H612.824V117.333H614.2L615.716 115.818Z" fill="#C4D7EC" stroke="#FFFCF8" stroke-width="0.6" stroke-miterlimit="10"/>
    <path d="M638.182 140.463L638.294 140.336V138.035H640.667H643.152V139.775H648.628L648.502 140.645L644.458 142.456V143.326H646.943V144.013H648.656V146.217L650.186 147.733L654.413 145.431V144.126H658.583V142.764L654.188 142.722L652.292 140.842V139.719L655.409 136.912H658.147L663.37 135.663V131.509H668.102V123.747H661.054L659.144 121.839H652.826L646.143 115.158H636.834L635.36 116.421V118.653H634.573V117.628H629.617L628.943 116.955H624.212L623.594 116.337H620.238L619.733 115.818H615.717L614.201 117.334H612.825V118.512L614.65 120.337V122.246H612.825L609.89 125.179V127.649H609.104L608.767 130.26L611.8 132.266H617.079L618.427 133.431H619.648L620.463 132.617H622.667L625.054 130.245H627.848L632.959 132.379V134.428L635.598 137.08V138.035H632.327V141.024L630.488 142.708L631.836 143.971L633.282 142.821L634.756 142.736V141.557H636.062L636.862 139.607" fill="#4175B9"/>
    <path d="M638.182 140.463L638.294 140.336V138.035H640.667H643.152V139.775H648.628L648.502 140.645L644.458 142.456V143.326H646.943V144.013H648.656V146.217L650.186 147.733L654.413 145.431V144.126H658.583V142.764L654.188 142.722L652.292 140.842V139.719L655.409 136.912H658.147L663.37 135.663V131.509H668.102V123.747H661.054L659.144 121.839H652.826L646.143 115.158H636.834L635.36 116.421V118.653H634.573V117.628H629.617L628.943 116.955H624.212L623.594 116.337H620.238L619.733 115.818H615.717L614.201 117.334H612.825V118.512L614.65 120.337V122.246H612.825L609.89 125.179V127.649H609.104L608.767 130.26L611.8 132.266H617.079L618.427 133.431H619.648L620.463 132.617H622.667L625.054 130.245H627.848L632.959 132.379V134.428L635.598 137.08V138.035H632.327V141.024L630.488 142.708L631.836 143.971L633.282 142.821L634.756 142.736V141.557H636.062L636.862 139.607" stroke="#FFFCF8" stroke-width="0.6" stroke-miterlimit="10"/>
    <path d="M630.095 136.982L629.477 142.343L630.544 142.652L632.328 141.024V138.034H635.599V137.08L632.959 134.427V132.378L627.849 130.245H625.055L624.296 131.003L625.981 133.347L630.095 136.982Z" fill="#C4D7EC" stroke="#FFFCF8" stroke-width="0.6" stroke-miterlimit="10"/>
    <path d="M597.998 133.01V131.663H605.131L606.408 130.386H608.95L608.767 130.26L609.104 127.649H609.006L607.279 125.923H596.833L592.915 129.853L591.582 129.417L592.452 131.817L592.382 131.958L594.165 133.01H597.998Z" fill="#C4D7EC" stroke="#FFFCF8" stroke-width="0.6" stroke-miterlimit="10"/>
    <path d="M609.638 133.544V135.691L605.889 139.424H603.404V140.126L604.443 141.852L608.767 146.189H612.305V148.477V148.589L614.229 150.512H623.299L625.419 148.392L629.94 148.785L632.65 150.778H632.706V145.557H635.627V143.017L638.182 140.463L636.862 139.607L636.062 141.557H634.756V142.736L633.282 142.821L631.836 143.971L630.488 142.708L630.544 142.652L629.477 142.343L630.095 136.982L625.981 133.347L624.296 131.003L622.667 132.617H620.463L619.649 133.431H618.427L617.079 132.267H611.8L611.73 132.224L611.056 133.544H609.638Z" fill="#C4D7EC" stroke="#FFFCF8" stroke-width="0.6" stroke-miterlimit="10"/>
    <path d="M603.404 139.424H605.889L609.638 135.691V133.544H611.056L611.73 132.224L608.95 130.386H606.409L605.131 131.663H597.999V133.01H594.166L592.383 131.958L589.926 136.126L589.518 136.533L589.322 137.95L594.573 141.585H597.367V140.617H599.178V140.715L600.961 139.424H603.404Z" fill="#C4D7EC" stroke="#FFFCF8" stroke-width="0.6" stroke-miterlimit="10"/>
    <path d="M599.388 150.834H600.961V148.448L599.739 147.227L600.61 146.357V144.813L599.178 144.084V144.322L591.217 143.887L587.777 145.726L591.835 149.796L593.449 151.817L594.362 152.701L595.008 153.304L597.76 155.438L597.535 153.024L599.388 150.834Z" fill="#C4D7EC" stroke="#FFFCF8" stroke-width="0.6" stroke-miterlimit="10"/>
    <path d="M605.272 157.009L603.685 155.423H601.705L600.33 156.799H599.515L600.891 157.879L600.512 165.051L603.966 167.76L604.12 168.012H604.963V165.641H605.946L607.504 164.083V162.623L605.089 161.037L605.272 157.009Z" fill="#C4D7EC" stroke="#FFFCF8" stroke-width="0.6" stroke-miterlimit="10"/>
    <path d="M611.422 155.901V156.013L606.353 156.476L605.539 157.276L605.272 157.01L605.089 161.038L607.504 162.623V162.595H609.568V160.911H611.983L612.769 160.125H613.486V158.062L611.422 155.901Z" fill="#C4D7EC" stroke="#FFFCF8" stroke-width="0.6" stroke-miterlimit="10"/>
    <path d="M628.41 156.939L630.095 157.122V150.778H632.651L629.941 148.785L625.42 148.392L623.3 150.511H614.229L612.306 148.589V148.476L611.674 148.785V150.553L613.205 152.083V153.627H611.421V155.901L613.485 158.062V160.125H614.426L615.353 159.213H618.484L619.551 160.265H624.058V158.539H625.167L625.293 158.665L626.009 157.276L628.41 156.939Z" fill="#C4D7EC" stroke="#FFFCF8" stroke-width="0.6" stroke-miterlimit="10"/>
    <path d="M674.562 180.574L677.047 178.076H683.281H688.743H689.993H691.987L684.208 161.978L681.653 159.424H676.247L673.762 161.908H665.113V160.729H659.455L656.029 157.318H648.321L642.283 159.859V160.729H634.94L630.096 157.122L628.411 156.939L626.01 157.276L625.294 158.666L626.01 159.396V160.645H625.393V162.609L627.85 162.539L629.254 162.062H634.379L636.148 162.722L634.659 164.308L628.131 164.209L624.775 165.992L627.106 171.76L630.84 180.026H635.923L637.748 181.837H641.469V178.665H644.642L648.279 182.314H653.6L655.748 180.167H660.971V182.707L663.119 180.574H674.562Z" fill="#C4D7EC" stroke="#FFFCF8" stroke-width="0.6" stroke-miterlimit="10"/>
    <path d="M615.534 176.433L611.715 173.725L612.543 172.798L617.485 176.153V174.005L621.599 175.493V174.665L618.524 172.981L617.864 170.932L612.641 164.209L619.353 161.879L624.955 162.623L625.39 162.609V160.644H626.008V159.395L625.165 158.539H624.056V160.265H619.549L618.482 159.213H615.351L614.424 160.125H612.768L611.981 160.911H609.566V162.595H607.502V164.083L605.944 165.641H604.961V168.012H604.119L607.137 172.7L609.651 173.163L608.162 175.31L609.089 178.103L610.872 179.97L611.055 178.763L612.725 180.531L613.568 179.788L614.691 181.935L615.716 180.812L614.41 177.556L615.534 176.433Z" fill="#C4D7EC" stroke="#FFFCF8" stroke-width="0.6" stroke-miterlimit="10"/>
    <path d="M624.772 185.486H622.497L622.118 185.093H619.647L619.366 184.812L616.783 184.854V186.693H620.138L621.5 187.717H626.541V186.286H624.772V185.486Z" fill="#C4D7EC" stroke="#FFFCF8" stroke-width="0.6" stroke-miterlimit="10"/>
    <path d="M623.972 178.146H621.978V179.296H623.972V178.146Z" fill="#C4D7EC" stroke="#FFFCF8" stroke-width="0.6" stroke-miterlimit="10"/>
    <path d="M620.378 179.858H619.353V180.517H620.378V179.858Z" fill="#C4D7EC" stroke="#FFFCF8" stroke-width="0.6" stroke-miterlimit="10"/>
    <path d="M630.247 183.577H629.152V185.935H630.247V183.577Z" fill="#C4D7EC" stroke="#FFFCF8" stroke-width="0.6" stroke-miterlimit="10"/>
    <path d="M626.232 175.97H625.025V177.486H626.232V175.97Z" fill="#C4D7EC" stroke="#FFFCF8" stroke-width="0.6" stroke-miterlimit="10"/>
    <path d="M625.39 171.984H624.21V173.907H625.39V171.984Z" fill="#C4D7EC" stroke="#FFFCF8" stroke-width="0.6" stroke-miterlimit="10"/>
    <path d="M625.628 179.1H624.589V180.181H625.628V179.1Z" fill="#C4D7EC" stroke="#FFFCF8" stroke-width="0.6" stroke-miterlimit="10"/>
    <path d="M633.169 181.598H631.554V183.338H633.169V181.598Z" fill="#C4D7EC" stroke="#FFFCF8" stroke-width="0.6" stroke-miterlimit="10"/>
    <path d="M611.673 150.553V148.785L612.305 148.476V146.189H608.767L604.442 141.852L603.403 140.126V139.424H600.96L599.177 140.715V144.083L600.609 144.813V146.357L599.739 147.227L600.96 148.448V150.834H600.68L603.586 155.423H603.684L605.538 157.276L606.352 156.476L611.421 156.013V153.627H613.204V152.083L611.673 150.553Z" fill="#C4D7EC" stroke="#FFFCF8" stroke-width="0.6" stroke-miterlimit="10"/>
    <path d="M599.388 150.834L597.535 153.023L597.759 155.437L599.514 156.799H600.329L601.705 155.423H603.586L600.68 150.834H599.388Z" fill="#C4D7EC" stroke="#FFFCF8" stroke-width="0.6" stroke-miterlimit="10"/>
    <path d="M470.666 61.9385L475.144 68.647L485.099 70.64L500.768 61.9385L496.051 57.9526L480.115 61.1806L477.377 57.9526L470.666 61.9385Z" fill="#C4D7EC" stroke="#FFFCF8" stroke-width="0.6" stroke-miterlimit="10"/>
    <path d="M976.123 237.526L980.728 243.491H982.469V229.569L979.225 228.937L976.123 237.526Z" fill="#C4D7EC" stroke="#FFFCF8" stroke-width="0.6" stroke-miterlimit="10"/>
    <path d="M937.187 254.676V258.915H941.666L944.334 256.234V253.554H939.293L937.187 254.676Z" fill="#C4D7EC" stroke="#FFFCF8" stroke-width="0.6" stroke-miterlimit="10"/>
    <path d="M971.755 159.297L973.299 158.118L977.104 159.297L976.515 157.318L980.867 154.862V153.094L981.611 152.504L983.759 153.683H986.722L986.764 153.641L980.909 143.887H986.694V130.077H979.786V133.642H973.987L965.984 125.642H958.094L941.161 108.716H927.626L925.492 110.864L928.468 113.853V122.667L925.492 125.796L921.574 124.912V131.761H931.557L940.318 137.08V138.386H928.202V142.764H922.964V145.698H919.005L917.376 144.07H915.312V147.143L918.303 149.754L915.411 151.536V153.866L912.701 155.536H904.22L898.899 159.185L886.67 156.757V154.694H866.269L860.92 147.859L852.088 143.129H842.26V138.035L835.914 132.94L827.335 128.842L826.9 127.396L823.698 126.667V129.979H820.975V132.182L822.603 133.81V135.551H813.898V140.645L815.513 142.273V143.789L811.652 143.017L807.187 144.631L812.41 151.719L811.413 155.69L811.273 155.662L811.596 158.188H809.602H807.917V161.487H801.206V164.588H797.471V163.466L792.809 165.515V168.013L792.164 167.971V170.553L793.708 172.111L794.789 171.044L798.973 172.883L798.412 175.409L799.619 176.897L797.934 178.384H800.841L803.635 180.911V183.339L811.104 186.131L815.569 183.423L820.343 185.388V189.023L818.798 190.566V191.535H816.046L817.17 194.342H819.402L820.343 196.854L818.56 198.44L817.071 197.135L815.569 198.44L817.998 200.489L817.914 202.734L827.7 208.517L829.946 206.271L851.316 218.397L856.904 216.727L858.027 217.373V219.983H859.052L861.86 215.604L868.207 218.116H872.124V216.811L877.431 211.506L880.885 212.994L883.412 211.225L886.487 213.555L884.901 215.225L888.916 216.531L890.026 215.225L894.518 219.239V227.73L892.553 229.681V234.902H897.495L898.436 238.453H901.047V242.831H903.462V245.442H908.039V246.747H910.188V241.442H911.578V240.137H918.682L921.013 239.379V237.33H922.684L924.748 239.379H928.202V242.747L933.677 245.442L934.941 243.744L941.414 245.358V250.073H943.52L943.155 245.849L962.685 238.888L971.895 228.937L978.228 215.506V209.415L972.26 207.422L975.251 203.689L965.675 191.268L959.821 188.152L963.808 178.819H968.413V176.967L960.761 174.665L956.521 178.89L948.125 170.497L958.15 160.49L962.502 164.841L958.641 168.686L961.197 171.241L968.905 166.272L972.611 161.038L971.755 159.297Z" fill="#C4D7EC" stroke="#FFFCF8" stroke-width="0.6" stroke-miterlimit="10"/>
    <path d="M782.672 160.855L778.193 159.241L780.44 156.757L779.359 156.139L779.681 155.69V153.95H787.404V152.336H790.128L791.827 154.02H805.937L811.413 155.69L811.595 158.188H807.917V161.487H801.206V164.588H797.471V163.465L792.809 165.514V168.013L790.451 167.886V168.883L781.9 168.476L781.366 167.942H776.579L775.947 166.511L778.628 164.715L781.057 165.893L781.198 165.164L785.41 165.206L788.148 162.469L782.672 159.241V160.855Z" fill="#C4D7EC" stroke="#FFFCF8" stroke-width="0.6" stroke-miterlimit="10"/>
    <path d="M986.946 172.237L981.091 167.507L986.44 162.16L984.699 159.297L985.387 155.017L986.721 153.683H983.759L981.61 152.504L980.866 153.094V154.862L976.514 157.318L977.103 159.297L973.298 158.118L971.754 159.297L972.611 161.037L968.904 166.272L973.762 168.125L973.13 174.104L983.45 175.844L986.96 172.251L986.946 172.237Z" fill="#C4D7EC" stroke="#FFFCF8" stroke-width="0.6" stroke-miterlimit="10"/>
    <path d="M995.146 179.816L986.961 172.251L983.451 175.844H983.465L983.703 178.075L981.218 179.451L985.444 183.184L986.694 189.766L995.652 187.029L995.146 179.816Z" fill="#C4D7EC" stroke="#FFFCF8" stroke-width="0.6" stroke-miterlimit="10"/>
    <path d="M932.709 347.698H928.483V340.864H925.731V337.004L904.839 321.089L902.592 315.11H897.13L895.375 313.37H890.658L906.327 329.538V338.127H909.065L913.796 349.186L927.472 362.87H932.709V347.698Z" fill="#C4D7EC" stroke="#FFFCF8" stroke-width="0.6" stroke-miterlimit="10"/>
    <path d="M958.08 367.094L950.737 365.354V367.838L942.284 367.094V365.228L934.071 363.74L929.718 367.221L935.068 367.964L934.45 369.452L963.935 375.431V370.827L958.08 369.578V367.094Z" fill="#C4D7EC" stroke="#FFFCF8" stroke-width="0.6" stroke-miterlimit="10"/>
    <path d="M982.341 373.059L976.374 372.315L975.124 374.491L965.675 373.059V375.052L974.128 376.666L982.341 375.431V373.059Z" fill="#C4D7EC" stroke="#FFFCF8" stroke-width="0.6" stroke-miterlimit="10"/>
    <path d="M1004.79 372.849L983.984 374.491V375.431H991.173L1004.79 374.491V372.849Z" fill="#C4D7EC" stroke="#FFFCF8" stroke-width="0.6" stroke-miterlimit="10"/>
    <path d="M981.009 378.35V380.301H983.986L986.134 382.448L988.24 380.357L985.53 377.648L981.009 378.35Z" fill="#C4D7EC" stroke="#FFFCF8" stroke-width="0.6" stroke-miterlimit="10"/>
    <path d="M1006.01 374.491L997.14 382.448L999.752 383.206L1013.01 374.491L1012.26 372.849L1006.01 374.491Z" fill="#C4D7EC" stroke="#FFFCF8" stroke-width="0.6" stroke-miterlimit="10"/>
    <path d="M942.537 349.312L938.802 348.077L937.314 350.562L940.543 352.428L942.537 349.312Z" fill="#C4D7EC" stroke="#FFFCF8" stroke-width="0.6" stroke-miterlimit="10"/>
    <path d="M933.454 346.449V350.926H935.686V348.695L934.324 344.47L930.589 343.965L931.207 346.449H933.454Z" fill="#C4D7EC" stroke="#FFFCF8" stroke-width="0.6" stroke-miterlimit="10"/>
    <path d="M1010.34 346.267L1003 344.709V347.081H1008.96V348.821L1010.34 346.267Z" fill="#C4D7EC" stroke="#FFFCF8" stroke-width="0.6" stroke-miterlimit="10"/>
    <path d="M1009.47 350.926V352.667L1012.21 355.039L1014.31 352.975L1013.01 350.926H1009.47Z" fill="#C4D7EC" stroke="#FFFCF8" stroke-width="0.6" stroke-miterlimit="10"/>
    <path d="M1016.56 350.309L1018.29 352.975H1023.4L1026.01 355.039L1028 352.975L1026.01 350.309H1016.56Z" fill="#C4D7EC" stroke="#FFFCF8" stroke-width="0.6" stroke-miterlimit="10"/>
    <path d="M1017.42 338.365V336.007L1020.53 337.004V335.39L1019.25 334.113L1020.53 330.787H1018.43L1020.53 327.559L1018.92 326.927L1016.56 328.05L1014.31 334.52L1015.44 336.007V338.492H1013.69V340.863H1018.79L1017.42 338.365Z" fill="#C4D7EC" stroke="#FFFCF8" stroke-width="0.6" stroke-miterlimit="10"/>
    <path d="M1029.55 338.309L1026.26 337.565V339.993H1029.55V338.309Z" fill="#C4D7EC" stroke="#FFFCF8" stroke-width="0.6" stroke-miterlimit="10"/>
    <path d="M1053.88 343.46L1051.63 345.705V348.077H1049.52L1045.66 351.923H1041.93V347.825H1040.57L1041.42 343.712L1040.31 340.611H1037.58L1036.45 339.488H1033.22L1031.85 340.863H1025.88L1028 344.962H1032.72V347.446H1038.19V349.186H1031.85V350.309L1037.08 355.038L1038.57 352.975L1054.49 361.382L1056.98 369.957H1053.62L1052.63 372.947H1061.71L1064.2 377.662L1066.93 377.985V349.481L1053.88 343.46Z" fill="#C4D7EC" stroke="#FFFCF8" stroke-width="0.6" stroke-miterlimit="10"/>
    <path d="M981.667 353.298H983.984V361.747H987.312V350.926L989.923 348.316L991.229 349.621V353.916L992.507 355.193V358.645H994.388V357.396H998.011V355.165H996.396L994.332 353.102L995.961 351.488L991.917 347.446L998.32 341.046V339.741L995.427 342.632H992.296L991.061 343.867H988.238V341.972H987.185V336.499L989.179 335.516L1003.23 336.751L1008.12 331.867L1007.04 330.787L1002.97 334.857L990.555 332.022L985.388 334.885V340.864H983.984V346.197L981.667 348.526V353.298Z" fill="#C4D7EC" stroke="#FFFCF8" stroke-width="0.6" stroke-miterlimit="10"/>
    <path d="M948.364 350.926H955.342V352.428H959.947V350.926H965.675V356.652L972.148 353.916V345.326L977.048 340.428V333.776H982.341L982.959 332.021L979.224 328.302L980.235 327.292L976.135 323.18L978.298 321.018L976.332 319.404H970.084V324.162L966.349 332.653H961.884L960.761 331.53H958.332L956.086 333.776H951.326L949.136 331.221H947.507L946.819 328.541L943.126 332.246V338.127L948.364 343.361V350.926Z" fill="#C4D7EC" stroke="#FFFCF8" stroke-width="0.6" stroke-miterlimit="10"/>
    <path d="M975.616 305.791L968.035 316.85L966.855 315.671L958.515 324.008L953.11 324.569V331.222H949.136L951.327 333.776H956.086L958.333 331.531H960.762L961.885 332.653H966.35L970.085 324.162V319.405H976.333L978.298 321.019L984.574 314.745L975.616 305.791Z" fill="#C4D7EC" stroke="#FFFCF8" stroke-width="0.6" stroke-miterlimit="10"/>
    <path d="M923.498 316.485L918.598 311.138L915.495 313.37H913.824V311.11L910.834 309.047L909.71 310.043L910.932 311.391L911.929 319.475L915.537 323.082V325.566L924.495 332.906L926.362 335.137H927.598L927.977 329.917L923.498 325.439V316.485Z" fill="#C4D7EC" stroke="#FFFCF8" stroke-width="0.6" stroke-miterlimit="10"/>
    <path d="M781.802 176.335V172.363H786.534V179.394L793.119 176.966L798.946 176.068L798.412 175.409L798.974 172.882L794.79 171.044L793.709 172.11L792.164 170.553V167.97L790.451 167.886V168.883L781.901 168.476L781.367 167.942H776.579L775.947 166.511L778.629 164.714L781.058 165.893L781.199 165.163L779.556 163.774L780.679 162.777L778.727 161.697L774.052 167.016H770.416V168.967L774.993 174.103L773.28 177.177L774.838 179.394L781.802 176.335Z" fill="#C4D7EC" stroke="#FFFCF8" stroke-width="0.6" stroke-miterlimit="10"/>
    <path d="M770.289 210.79L773.308 209.485V205.092L774.768 203.632H777.506V202.145L779.12 200.769H781.606V202.145H783.052V195.492H786.253V194.243L783.979 192.629V191.815H788.837V184.545L786.899 182.623V180.503L791.883 178.679L797.106 179.395L798.496 178.384H797.935L799.62 176.896L798.946 176.068L793.119 176.967L786.534 179.395V172.363H781.802V176.335L774.838 179.395L773.28 177.177L773.027 177.64L768.674 176.265V177.023H763.072V181.556L757.976 183.619V185.724H755.364L750.703 184.04V193.247L751.7 194.243L753.679 202.454H756.544V205.555L753.497 208.601L754.606 209.709L759.843 210.79H770.289Z" fill="#C4D7EC" stroke="#FFFCF8" stroke-width="0.6" stroke-miterlimit="10"/>
    <path d="M793.78 233.162V229.681L790.157 226.06V222.972H787.153V220.853L790.27 217.737H792.165L793.022 218.594H795.858L796.602 214.397L799.494 211.506V208.882H801.446V206.369L803.566 204.25V200.489L804.675 199.38V197.935H802.148V195.507L799.635 193.008V190.791L798.399 189.556V188.279H805.826L809.519 185.542L803.636 183.339V180.911L800.842 178.384H798.497L797.107 179.395L791.884 178.679L786.9 180.504V182.623L788.838 184.545V191.815H783.98V192.629L786.254 194.243V195.493H783.053V202.145H781.607V200.77H779.122L777.507 202.145V203.633H774.769L773.309 205.092V209.485L770.29 210.79H759.844L754.607 209.71L759.9 215.015H761.894V219.983H764.885V223.099H761.402L759.044 225.457V228.404L759.9 228.572H778.195L785.285 235.66V233.162H793.78Z" fill="#C4D7EC" stroke="#FFFCF8" stroke-width="0.6" stroke-miterlimit="10"/>
    <path d="M825.466 214.116L838.622 221.288L850.936 223.899L856.159 224.376L857.001 222.972L855.794 220.825L855.583 217.12L851.315 218.397L829.945 206.271L827.699 208.517L826.828 207.997L825.466 209.639V214.116Z" fill="#C4D7EC" stroke="#FFFCF8" stroke-width="0.6" stroke-miterlimit="10"/>
    <path d="M863.531 223.155L864.345 221.948L870.06 223.155L870.622 220.165L868.01 219.618L868.136 218.088L861.86 215.604L859.052 219.983H858.547L858.308 221.849L863.531 223.155Z" fill="#C4D7EC" stroke="#FFFCF8" stroke-width="0.6" stroke-miterlimit="10"/>
    <path d="M873.415 235.842H871.927V238.635H869.596V233.274H871.225L873.893 230.621L872.404 229.119H862.604V226.565H860.877L858.87 224.558L856.904 226.523L859.993 229.597H857.844V233.316H859.529L860.639 234.439L859.894 235.744L863.236 244.768L869.624 242.368V240.137H871.997L874.482 246.354L874.497 246.368L876.406 245.821L873.415 235.842Z" fill="#C4D7EC" stroke="#FFFCF8" stroke-width="0.6" stroke-miterlimit="10"/>
    <path d="M878.09 241.625L876.405 240.319V238.551H877.711V235.463H880.421L882.19 230.439L880.912 229.148L882.527 227.534V223.758L885.363 220.923H888.031V219.099L888.817 218.313V216.503L884.9 215.225L886.486 213.555L883.411 211.226L880.884 212.994L877.43 211.506L872.123 216.811V218.117H868.206L868.135 218.088L868.009 219.618L870.621 220.166L870.059 223.155L864.344 221.948L863.53 223.155L858.307 221.85L858.546 219.983H858.026V217.373L856.903 216.727L855.583 217.12L855.794 220.825L857.001 222.973L856.159 224.376L850.936 223.899L838.622 221.288L825.466 214.117V209.64L826.828 207.998L817.913 202.735L817.997 200.489L815.568 198.44L817.07 197.135L818.559 198.44L820.342 196.854L819.401 194.342H817.169L816.045 191.535H818.797V190.566L820.342 189.023V185.388L815.568 183.423L811.103 186.132L809.517 185.542L805.824 188.279H798.397V189.556L799.632 190.791V193.009L802.145 195.507V197.935H804.673V199.38L803.563 200.489V204.25L801.443 206.37V208.882H799.492V211.506L796.599 214.397L795.855 218.594H793.019L792.163 217.738H790.267L787.15 220.853V222.973H790.155V226.06L793.777 229.681V233.162H785.283V235.66L788.765 239.14H792.865V241.316H788.077L796.29 249.526L799.59 246.228V241.751H801.584L806.175 266.747L812.409 276.697V279.546L819.935 294.226V299.139L823.346 302.563H826.955V297.581H829.44V292.977H832.683V268.487L840.153 267.364V264.754L849.602 253.807L854.951 249.835V246.102L860.666 243.239V245.723L863.235 244.768L859.894 235.744L860.638 234.439L859.529 233.316H857.844V229.597H859.992L856.903 226.523L858.869 224.558L860.877 226.565H862.603V229.12H872.404L873.892 230.621L871.224 233.274H869.596V238.635H871.926V235.842H873.415L875.521 242.832H878.09V241.625Z" fill="#4175B9" stroke="#FFFCF8" stroke-width="0.6" stroke-miterlimit="10"/>
    <path d="M906.692 286.956L904.544 282.942V278.423L900.571 273.988V271.701H902.157V267.967L896.569 259.392V252.908H900.95V251.322H902.635V250.073H904.488L907.787 245.442H903.463V242.831H901.048V238.452H898.437L897.496 234.902H892.554V229.681L894.519 227.73V219.239L890.026 215.225L888.917 216.53L888.819 216.502V218.313L888.032 219.099V220.923H885.365L882.529 223.758V227.534L880.914 229.147L882.192 230.439L880.423 235.463H877.713V238.551H876.407V240.319L878.092 241.624V242.831H875.522L876.407 245.821L874.498 246.368L884.93 261.638V269.848H889.914L893.761 266.746L894.014 263.139L897.496 267.981L903.337 285.019L902.761 298.521L906.692 288.388V286.956Z" fill="#C4D7EC" stroke="#FFFCF8" stroke-width="0.6" stroke-miterlimit="10"/>
    <path d="M917.46 283.532L916.281 279.49L919.58 276.192H927.288V270.409L924.312 267.434V262.395L920.886 258.971H918.401L915.593 261.764L913.725 259.897L910.875 262.76H909.499V253.806H906.635V250.887L904.669 249.834L904.487 250.073H902.633V251.322H900.948V252.908H896.568V259.392L902.156 267.967V271.7H900.569V273.988L904.543 278.423V282.942L906.691 286.956V288.388L902.76 298.521L902.591 302.184L909.71 310.043L910.833 309.047L913.824 311.11V313.369H915.494L918.597 311.138L915.537 307.784H912.307L909.064 298.198H906.705L905.582 295.714L907.941 286.268V280.416H911.928V283.532H915.284L916.533 286.395L918.274 285.763L918.583 286.044L918.71 283.532H917.46Z" fill="#C4D7EC" stroke="#FFFCF8" stroke-width="0.6" stroke-miterlimit="10"/>
    <path d="M939.42 270.844L926.489 255.055L933.678 245.442L928.202 242.747V239.379H924.748L922.684 237.33H921.013V239.379L918.682 240.137H911.578V241.442H911.494L914.484 244.417V246.592L918.331 248.712L919.076 247.968L924.046 251.94L922.501 253.483H921.055L920.157 254.382L934.787 269.006L933.986 269.806L936.036 271.841L937.188 284.528L931.08 287.139V289.931H932.203V291.237H928.104V293.202H926.376L927.359 294.1V300.696H929.339L942.776 288.626L943.408 283.405L939.42 270.844Z" fill="#C4D7EC" stroke="#FFFCF8" stroke-width="0.6" stroke-miterlimit="10"/>
    <path d="M931.079 287.139L937.187 284.528L936.359 275.504H930.771V278.437L925.674 276.192H919.58L916.281 279.49L917.46 283.532H918.71L918.583 286.044L920.928 291.012L924.017 291.04L926.376 293.202H928.103V291.237H932.203V289.932H931.079V287.139Z" fill="#C4D7EC" stroke="#FFFCF8" stroke-width="0.6" stroke-miterlimit="10"/>
    <path d="M659.58 211.534L660.97 204.18V196.854H662.247L664.452 199.057H666.108L672.258 194.945L674.126 199.661L667.597 202.735L670.124 205.626L669.183 208.699H666.473L664.325 212.896L659.58 211.534Z" fill="#C4D7EC" stroke="#FFFCF8" stroke-width="0.6" stroke-miterlimit="10"/>
    <path d="M1145.13 425.254L1143.08 419.387L1140.65 420.692L1143.82 429.183L1151.37 436.916L1153.42 434.769L1145.13 425.254Z" fill="#C4D7EC" stroke="#FFFCF8" stroke-width="0.6" stroke-miterlimit="10"/>
    <path d="M835.914 132.94L842.26 138.035V143.129H852.088L860.92 147.859L866.269 154.694H886.67V156.757L898.899 159.185L904.221 155.536H912.701L915.411 153.866V151.536L918.303 149.754L915.313 147.143V144.07H917.377L919.005 145.698H922.965V142.764H928.202V138.386H940.319V137.08L931.557 131.761H921.575V124.912L912.926 122.99L909.191 126.723H894.701L892.272 124.477L880.661 120.716L879.018 122.358H873.907L869.499 117.951L856.441 113.853V117.769L858.308 119.635V123.551H845.995V120.562H838.16L827.209 127.467L826.9 127.396L827.335 128.842L835.914 132.94Z" fill="#C4D7EC" stroke="#FFFCF8" stroke-width="0.6" stroke-miterlimit="10"/>
    <path d="M511.258 230.537L545.559 256.74L553.393 254.677L575.451 237.302L576.349 236.586V232.109H568.318L565.524 225.4V207.675L558.813 190.145L562.169 188.096L562.014 178.104H555.176L551.343 180.167L549.939 179.142L536.882 180.532L532.585 183.338H530.634L525.214 186.187H525.046L527.081 199.661H521.114V204.503L499.408 214.397V218.748V221.485L499.899 221.864V220.923V221.864L511.258 230.537Z" fill="#C4D7EC" stroke="#FFFCF8" stroke-width="0.6" stroke-miterlimit="10"/>
    <path d="M668.945 264.655V276.879L674.126 274.353L681.314 275.616L689.977 284.318L690.09 284.43L692.112 282.732L680.037 271.588L675.951 259.827L671.191 264.655H668.945Z" fill="#C4D7EC" stroke="#FFFCF8" stroke-width="0.6" stroke-miterlimit="10"/>
    <path d="M689.977 284.318L687.941 287.391V291.644L692.448 291.237L695.691 287.798L692.967 283.532L692.111 282.732L690.089 284.43L689.977 284.318Z" fill="#C4D7EC" stroke="#FFFCF8" stroke-width="0.6" stroke-miterlimit="10"/>
    <path d="M614.104 279.995V270.353H621.363V251.42H619.917V253.933L591.092 236.684L586.908 239.435L587.259 239.575L591.092 251.07V265.497L580.365 279.995H581.39L583.482 286.381L587.638 281.82L588.298 295.068H584.282L583.538 297.58L589.323 305.047L588.592 306.31L593.142 304.247L594.265 305.693L601.819 299.026H607.084L616.631 290.465L617.712 289.497L614.104 279.995Z" fill="#C4D7EC" stroke="#FFFCF8" stroke-width="0.6" stroke-miterlimit="10"/>
    <path d="M623.342 243V251.42H621.362V270.353H614.103V279.995L617.711 289.496L616.63 290.465L621.039 294.886V300.373L633.647 312.99V316.19L647.07 321.397H657.081L659.412 319.067L660.015 318.478H667.218V313.004L658.892 304.668H655.157V301.314H659.51L668.945 283.363V277.623V276.879V264.655H671.192L675.951 259.827L675.937 259.785L670.84 257.918L669.465 243.856L664.115 239.758L662.416 236.235L655.649 243H623.342Z" fill="#C4D7EC" stroke="#FFFCF8" stroke-width="0.6" stroke-miterlimit="10"/>
    <path d="M655.648 243L662.416 236.235L648.811 208.166H650.552L656.898 217.625H658.021L659.144 210.902L655.747 204.039H649.4L645.385 201.794L637.747 205.625L629.07 202.271H623.341V243H655.648Z" fill="#4175B9" stroke="#FFFCF8" stroke-width="0.6" stroke-miterlimit="10"/>
    <path d="M482.486 237.274H486.839V225.948H499.897V221.864L499.405 221.485V218.748H483.357L476.14 230.804L471.914 234.79L469.864 240.446L467.435 242.874V246.228H482.486V237.274Z" fill="#C4D7EC" stroke="#FFFCF8" stroke-width="0.6" stroke-miterlimit="10"/>
    <path d="M638.983 409.381L632.146 414.854H625.982L629.155 425.913H634.659L639.138 434.867H646.706H647.731L653.501 422.84V411.724L649.121 407.36H644.698V404.539L638.983 406.517V409.381Z" fill="#C4D7EC" stroke="#FFFCF8" stroke-width="0.6" stroke-miterlimit="10"/>
    <path d="M643.772 342.211L639.658 349.677H640.963H644.038V348.176H647.352V343.965H643.772V342.211Z" fill="#C4D7EC" stroke="#FFFCF8" stroke-width="0.6" stroke-miterlimit="10"/>
    <path d="M645.511 455.133H649.878L650.987 453.155H649.878V449.913H645.511V455.133Z" fill="#C4D7EC" stroke="#FFFCF8" stroke-width="0.6" stroke-miterlimit="10"/>
    <path d="M484.592 275.195V271.097H486.839H508.981V230.804L511.255 230.537L499.897 221.864V225.948H486.839V237.274H482.486V246.228H467.435V247.098L469.05 250.073V266.985H477.263L484.592 275.195Z" fill="#C4D7EC" stroke="#FFFCF8" stroke-width="0.6" stroke-miterlimit="10"/>
    <path d="M529.27 272.487H527.557L518.22 280.613L515.328 279.855L509.445 292.079H510.105L514.205 296.177H520.088V291.265L526.406 290.774H529.972H533.524L534.072 290.185L538.551 285.357L529.27 272.487Z" fill="#C4D7EC" stroke="#FFFCF8" stroke-width="0.6" stroke-miterlimit="10"/>
    <path d="M644.037 349.677H640.962L643.363 356.54L647.351 351.951V348.175H644.037V349.677Z" fill="#C4D7EC" stroke="#FFFCF8" stroke-width="0.6" stroke-miterlimit="10"/>
    <path d="M617.712 412.103L613.486 407.879V393.578H620.956V385.817H613.669V369.578H609.19V366.786L603.588 367.712V373.129H596.876L593.703 363.993H576.995L581.642 376.175H579.522L582.386 384.638V390.602L574.791 405.395V413.226H609.007L617.712 412.103Z" fill="#C4D7EC" stroke="#FFFCF8" stroke-width="0.6" stroke-miterlimit="10"/>
    <path d="M575.548 347.951H583.48V339.923L582.526 338.969V336.794L585.081 334.239L582.933 332.092H580.125V328.176H573.413V333.959H567.362L563.599 342.225L572.22 354.968L575.548 352.751V347.951Z" fill="#C4D7EC" stroke="#FFFCF8" stroke-width="0.6" stroke-miterlimit="10"/>
    <path d="M573.412 328.176H567.389V333.888L567.361 333.959H573.412V328.176Z" fill="#C4D7EC" stroke="#FFFCF8" stroke-width="0.6" stroke-miterlimit="10"/>
    <path d="M486.839 283.658V282.198V271.097H484.592V275.195L477.263 266.985H469.05V269.483L467.435 273.96V283.658H479.032H486.839Z" fill="#C4D7EC" stroke="#FFFCF8" stroke-width="0.6" stroke-miterlimit="10"/>
    <path d="M685.246 324.92L688.152 322.029L684.025 317.903L680.851 321.089V322.576H675.151L671.051 318.478H667.218H660.015L659.412 319.068L664.803 329.524L659.636 337.144L661.686 337.748V342.042L660.549 343.179L673.859 350.561L673.199 353.916L679.798 358.056L687.127 344.47L687.507 344.049L685.246 341.79V324.92Z" fill="#C4D7EC" stroke="#FFFCF8" stroke-width="0.6" stroke-miterlimit="10"/>
    <path d="M580.125 328.176H591.091V324.724L585.306 312.135L588.592 306.31L589.322 305.047L583.537 297.581L584.281 295.069H588.297L587.637 281.82L583.481 286.381L584.281 288.809L573.554 310.366L570.746 307.279H566.548L562.392 317.51H563.066L567.391 321.833V328.176H573.414H580.125Z" fill="#C4D7EC" stroke="#FFFCF8" stroke-width="0.6" stroke-miterlimit="10"/>
    <path d="M673.859 350.561L660.549 343.179L657.769 345.958V348.695H652.054V341.79H647.351V343.965V348.175V351.951L643.363 356.54L642.97 356.989L648.839 375.178L660.408 378.995L661.574 383.192L662.936 388.048H674.505L683.393 384.371V381.887H679.293V359.01L679.798 358.056L673.199 353.915L673.859 350.561Z" fill="#C4D7EC" stroke="#FFFCF8" stroke-width="0.6" stroke-miterlimit="10"/>
    <path d="M662.935 388.048L661.573 383.192L660.043 391.5L661.573 397.844H665.083V407.163L662.556 411.64L658.639 406.335L661.026 403.949V399.893H656.87L654.778 398.055L644.332 401.914L645.455 404.272L644.697 404.539V407.36H649.119L653.5 411.724V422.84L647.729 434.868H646.704L649.878 442.334V449.913V453.155H650.987H652.166V448.172L661.32 442.208V426.601L683.392 404.525V384.371L674.504 388.048H662.935Z" fill="#C4D7EC" stroke="#FFFCF8" stroke-width="0.6" stroke-miterlimit="10"/>
    <path d="M491.445 302.605L491.909 302.058L488.455 295.068H482.853L481.673 298.268L481.856 298.451V304.921L486.714 308.303L491.445 302.605Z" fill="#C4D7EC" stroke="#FFFCF8" stroke-width="0.6" stroke-miterlimit="10"/>
    <path d="M498.998 308.584V304.949L491.444 302.605L486.712 308.303L501.694 318.787L502.733 312.317L498.998 308.584Z" fill="#C4D7EC" stroke="#FFFCF8" stroke-width="0.6" stroke-miterlimit="10"/>
    <path d="M467.435 283.658V284.402L474.104 290.9L479.032 283.658H467.435Z" fill="#C4D7EC" stroke="#FFFCF8" stroke-width="0.6" stroke-miterlimit="10"/>
    <path d="M526.406 290.774L520.087 291.265V296.177H521.435V302.942L519.343 305.047V316.078L523.162 317.482L533.328 311.896L529.972 290.774H526.406Z" fill="#C4D7EC" stroke="#FFFCF8" stroke-width="0.6" stroke-miterlimit="10"/>
    <path d="M539.394 284.43L538.551 285.356L534.073 290.184L533.525 290.774L536.417 294.409C536.417 294.409 536.796 305.623 536.923 309.917L536.979 309.889H540.714V299.447L544.912 292.739V287.139L539.408 284.43H539.394Z" fill="#C4D7EC" stroke="#FFFCF8" stroke-width="0.6" stroke-miterlimit="10"/>
    <path d="M533.524 290.774H529.986L533.342 311.896L536.936 309.931C536.795 305.637 536.43 294.423 536.43 294.423L533.538 290.788L533.524 290.774Z" fill="#C4D7EC" stroke="#FFFCF8" stroke-width="0.6" stroke-miterlimit="10"/>
    <path d="M499.405 214.397L521.112 204.503V199.661H527.079L525.043 186.187H516.015L513.74 183.928H510.974L507.619 191.268L498.787 196.489L498.408 198.594L495.418 203.324L496.794 207.548L488.833 218.116H483.722L483.357 218.748H499.405V214.397Z" fill="#C4D7EC" stroke="#FFFCF8" stroke-width="0.6" stroke-miterlimit="10"/>
    <path d="M595.753 459.863V461.548L601.917 462.474L605.343 460.509V433.001H609.499V416.833L617.586 414.854L626.165 415.5L625.982 414.854H624.803V414.532V412.861H618.456L617.712 412.104L609.007 413.226H574.791V415.346L585.489 437.226L590.965 460.986H592.327L592.411 461.127L593.956 458.558L595.753 459.863Z" fill="#C4D7EC" stroke="#FFFCF8" stroke-width="0.6" stroke-miterlimit="10"/>
    <path d="M608.065 453.618H611.8L615.815 446.614H618.708L620.014 449H625.616L638.926 434.446L634.658 425.913H629.154L626.163 415.5L617.585 414.854L609.497 416.833V433.001H605.341V445.365L608.627 449.913L608.065 453.618Z" fill="#C4D7EC" stroke="#FFFCF8" stroke-width="0.6" stroke-miterlimit="10"/>
    <path d="M650.988 453.155L649.879 455.134H645.513V449.913H649.879V442.334L646.706 434.868H639.138L638.928 434.447L625.617 449.001H620.015L618.709 446.615H615.817L611.801 453.618H608.067L608.628 449.913L605.343 445.366V460.509L601.917 462.474L595.753 461.548V459.864L593.956 458.558L592.412 461.127L598.926 474.039V479.638H596.189L603.911 487.343L628.594 481.687L652.168 458.123V453.155H650.988Z" fill="#C4D7EC" stroke="#FFFCF8" stroke-width="0.6" stroke-miterlimit="10"/>
    <path d="M695.467 412.735V416.959L696.647 418.138V424.047L694.344 429.52H692.856L691.044 431.331V435.864L693.502 438.32V443.316L695.341 446.685H697.7V447.92H700.817L702.179 446.558H705.661L709.648 433.871L716.865 416.468V411.738L718.353 408.875L716.738 404.524L718.353 403.275L719.476 406.391L721.217 403.275L719.603 400.791V393.577L716.177 390.167L714.745 391.599V395.57H711.642V400.553L704.916 405.521H697.573V409.507L695.467 412.735Z" fill="#C4D7EC" stroke="#FFFCF8" stroke-width="0.6" stroke-miterlimit="10"/>
    <path d="M535.604 271.238H543.298L547.047 267.49V256.347L545.558 256.74L511.258 230.537L508.983 230.804V271.097H486.841V282.199H496.389L499.66 292.079H509.446L515.329 279.855L518.222 280.613L527.559 272.487H529.272L529.805 273.216H533.624L535.604 271.238Z" fill="#C4D7EC" stroke="#FFFCF8" stroke-width="0.6" stroke-miterlimit="10"/>
    <path d="M583.48 286.381L581.388 279.995H580.672L576.319 282.998L574.536 281.216H569.046L566.954 283.307H563.009L559.864 280.177L557.87 282.184H556.087L553.461 279.546H545.655V282.072L544.068 283.658V286.718L544.896 287.139V289.342V292.738L540.712 299.447V309.889H547.297L553.026 317.51H562.391L566.547 307.278H570.745L573.553 310.366L584.28 288.809L583.48 286.381Z" fill="#C4D7EC" stroke="#FFFCF8" stroke-width="0.6" stroke-miterlimit="10"/>
    <path d="M591.091 265.497V251.07L587.258 239.575L586.907 239.435L581.08 237.302H575.45L553.392 254.677L547.046 256.347V267.49L543.297 271.238H535.603L533.623 273.216H529.804L538.551 285.356L539.394 284.43L544.069 286.718V283.658L545.656 282.072V279.546H553.462L556.088 282.185H557.871L559.865 280.178L563.01 283.307H566.955L569.047 281.216H574.537L576.32 282.999L580.673 279.995H580.364L591.091 265.497Z" fill="#C4D7EC" stroke="#FFFCF8" stroke-width="0.6" stroke-miterlimit="10"/>
    <path d="M499.659 292.079L496.387 282.199H486.84V283.658H479.033L474.105 290.9L481.673 298.268L482.852 295.069H488.454L491.908 302.058L491.445 302.605L497.665 304.542L500.262 292.079H499.659Z" fill="#C4D7EC" stroke="#FFFCF8" stroke-width="0.6" stroke-miterlimit="10"/>
    <path d="M520.088 296.177H514.205L510.105 292.079H509.445H500.263L497.666 304.542L498.999 304.949V308.584L502.734 312.317L501.695 318.787L502.144 319.096L506.988 315.236H517.069L519.344 316.078V305.047L521.436 302.942V296.177H520.088Z" fill="#C4D7EC" stroke="#FFFCF8" stroke-width="0.6" stroke-miterlimit="10"/>
    <path d="M568.261 203.815H570.69V200.278H573.049V194.875L572.544 194.65L567.952 192.658V190.889L571.87 186.974V183.802H569.904V181.654L571.87 179.69V178.3L568.977 179.226V177.079H565.804L564.316 178.104H562.013L562.168 188.096L558.812 190.145L565.425 207.422H568.261V203.815Z" fill="#C4D7EC" stroke="#FFFCF8" stroke-width="0.6" stroke-miterlimit="10"/>
    <path d="M622.905 202.271V199.661H616.278V197.514L611.616 195.829L603.866 199.464V201.794L605.411 204.461L601.816 208.054L587.537 202.833V199.282L580.924 196.952H577.835L573.047 194.875V200.278H570.689V203.815H568.26V207.422H565.423L565.522 207.675V225.4L568.316 232.109H576.347V236.586L575.448 237.302H581.078L586.905 239.435L591.089 236.684L619.914 253.933V251.421H621.36H623.34V243V202.271H622.905Z" fill="#4175B9" stroke="#FFFCF8" stroke-width="0.6" stroke-miterlimit="10"/>
    <path d="M700.396 316.092L712.85 303.643H709.396L697.77 298.675L692.112 293.005V291.265L687.942 291.644V287.391L689.978 284.318L681.315 275.616L674.126 274.353L668.945 276.879V277.623V283.363L659.51 301.314H655.158V304.668H658.892L667.218 313.004V318.478H671.052L675.151 322.576H680.852V321.088L684.025 317.903L687.254 321.131L696.984 316.092H700.396Z" fill="#C4D7EC" stroke="#FFFCF8" stroke-width="0.6" stroke-miterlimit="10"/>
    <path d="M699.075 293.104L695.692 287.799L692.448 291.237L692.111 291.265V293.005L697.77 298.675L709.395 303.644H712.849L700.395 316.092H696.983L687.253 321.131L688.152 322.029L685.246 324.92V341.79L687.506 344.05L714.997 314.001L723.45 293.104V286.521L699.075 293.104Z" fill="#C4D7EC" stroke="#FFFCF8" stroke-width="0.6" stroke-miterlimit="10"/>
    <path d="M649.021 328.723L643.742 333.986L642.759 344.049L643.77 342.211V343.965H647.35V341.789H652.054V337.495L657.712 336.569L659.636 337.144L664.803 329.523L659.411 319.067L657.081 321.397H647.35V327.053L649.021 328.723Z" fill="#C4D7EC" stroke="#FFFCF8" stroke-width="0.6" stroke-miterlimit="10"/>
    <path d="M581.515 358.519L584.281 356.54V358.519H586.991L591.779 353.733V346.954L597.872 340.863V334.646V322.576H592.958V327.432H591.091V328.176H580.125V332.092H582.933L585.081 334.239L582.526 336.793V338.969L583.481 339.923V347.951H575.548V352.751L572.22 354.968L575.295 359.515L575.379 359.726L579.648 356.54L581.515 358.519Z" fill="#C4D7EC" stroke="#FFFCF8" stroke-width="0.6" stroke-miterlimit="10"/>
    <path d="M661.574 397.844L660.043 391.5L661.574 383.192L660.408 378.996L655.775 377.466V391.472L653.248 398.63L654.778 398.055L656.87 399.893H661.026V403.949L658.639 406.335L662.556 411.64L665.084 407.163V397.844H661.574Z" fill="#C4D7EC" stroke="#FFFCF8" stroke-width="0.6" stroke-miterlimit="10"/>
    <path d="M648.84 375.178L648.138 372.975L640.233 373.873V375.304L637.551 377.971L638.801 379.22V383.515L637.481 386.308V388.118L639.741 390.364H643.462V395.795H640.387L635.445 390.855L634.378 387.458H632.075V389.971L626.487 388.609V387.178H623.188V385.929L621.685 384.946L620.899 385.816H620.955V393.577H613.486V407.879L617.712 412.103L618.456 412.861H624.802V414.531V414.854H625.982H632.146L638.983 409.381V406.517L644.698 404.539L645.456 404.272L644.333 401.914L653.248 398.63L655.776 391.472V377.466L648.84 375.178Z" fill="#C4D7EC" stroke="#FFFCF8" stroke-width="0.6" stroke-miterlimit="10"/>
    <path d="M600.007 317.903L604.556 316.415L606.058 319.067L615.802 321.397L616.448 317.903L618.807 318.338L629.211 315.882H633.647V312.99L621.039 300.373V294.886L616.63 290.465L607.083 299.026H601.818L594.264 305.692L593.141 304.247L588.592 306.31L585.306 312.134L591.091 324.723V327.432H592.958V322.576H597.872L600.007 320.274V317.903Z" fill="#C4D7EC" stroke="#FFFCF8" stroke-width="0.6" stroke-miterlimit="10"/>
    <path d="M640.233 373.873L648.138 372.975L642.971 356.989L643.364 356.54L640.963 349.677H639.658L642.761 344.049L643.743 333.987L649.023 328.724L647.352 327.053V321.397H647.071L633.648 316.191V315.882H629.211L618.808 318.338L616.449 317.903L615.803 321.397L606.059 319.068L604.556 316.415L600.007 317.903V320.275L597.873 322.576V334.646V340.864L591.78 346.955V353.733L586.992 358.519H584.282V356.54L581.516 358.519L579.649 356.54L575.38 359.726L575.479 360.007L576.995 363.993H593.703L596.876 373.129H603.588V367.712L609.19 366.786V369.578H613.669V385.817H620.9L621.686 384.946L623.188 385.929V387.178H626.488V388.609L632.076 389.971V387.459H634.378L635.445 390.855L640.388 395.795H643.463V390.364H639.742L637.481 388.118V386.308L638.801 383.515V379.22L637.552 377.971L640.233 375.305V373.873Z" fill="#C4D7EC" stroke="#FFFCF8" stroke-width="0.6" stroke-miterlimit="10"/>
    <path d="M470.666 61.9385L475.144 68.647L485.099 70.64L500.768 61.9385L496.051 57.9526L480.115 61.1806L477.377 57.9526L470.666 61.9385Z" fill="#C4D7EC" stroke="#FFFCF8" stroke-width="0.6" stroke-miterlimit="10"/>
    <path d="M392.291 78.8503H400.996V83.3273H407.722L427.744 63.2999H435.578L448.832 50.0511L478.626 45.2653H483.105V33.5744L492.554 24.1291V12.1856H505.991L518.066 8.46644V6.47352H495.545L488.075 1H460.458L424.893 5.22443L407.722 5.72968L388.065 13.4347H376.117L368.226 21.3362L371.891 24.6344H395.029V39.7918H401.249V43.2864H392.291V47.5109H398.764L396.644 49.6161H391.786L387.068 56.465L392.291 78.8503Z" fill="#C4D7EC" stroke="#FFFCF8" stroke-width="0.6" stroke-miterlimit="10"/>
    <path d="M216.013 242.368L218.063 243.673L224.592 240.881H229.253L228.088 242.045H232.244L237.102 246.101V248.712H242.508V250.943H240.458V252.81H249.233L254.077 251.322V249.456H249.036V246.845H245.302L239.054 240.6H235.038V239.196L230.938 237.891H224.592L216.013 242.368Z" fill="#C4D7EC" stroke="#FFFCF8" stroke-width="0.6" stroke-miterlimit="10"/>
    <path d="M222.683 243.716L224.143 242.368L225.744 243.463L224.214 244.768L222.683 243.716Z" fill="#C4D7EC" stroke="#FFFCF8" stroke-width="0.6" stroke-miterlimit="10"/>
    <path d="M237.748 257.666L236.822 259.252L239.335 261.119H244.656L245.035 259.392L241.385 257.666H237.748Z" fill="#C4D7EC" stroke="#FFFCF8" stroke-width="0.6" stroke-miterlimit="10"/>
    <path d="M279.365 258.228V260.74H283.844L284.967 259.477V258.228H279.365Z" fill="#C4D7EC" stroke="#FFFCF8" stroke-width="0.6" stroke-miterlimit="10"/>
    <path d="M337.492 557.236H341.325L342.336 558.26L339.921 561.432L337.492 560.113V557.236Z" fill="#C4D7EC" stroke="#FFFCF8" stroke-width="0.6" stroke-miterlimit="10"/>
    <path d="M343.179 558.541L341.044 562.358H343.558L346.071 560.45H347.475V558.541H343.179Z" fill="#C4D7EC" stroke="#FFFCF8" stroke-width="0.6" stroke-miterlimit="10"/>
    <path d="M371.638 13.3085L401.867 6.78237L402.99 4.17192L381.157 2.8667L334.501 5.47715V8.08759L339.176 10.698L337.857 13.3085L329.657 8.08759L316.22 11.2594V16.4803L327.045 18.5294V20.5925H317.708V23.7503L341.788 24.6906L349.987 22.2626V18.1645L365.109 12.7471L371.638 13.3085Z" fill="#C4D7EC" stroke="#FFFCF8" stroke-width="0.6" stroke-miterlimit="10"/>
    <path d="M290.275 13.7717L293.883 19.2874H313.049V16.5366L309.187 15.0489L303.22 15.6804H297.492L290.275 13.7717Z" fill="#C4D7EC" stroke="#FFFCF8" stroke-width="0.6" stroke-miterlimit="10"/>
    <path d="M302.966 22.0099V23.6379H308.821V25.8694L306.448 26.9922V29.35H336.804L339.289 26.3746L329.84 25.6869L325.614 26.2483H316.22V20.9011L302.966 22.0099Z" fill="#C4D7EC" stroke="#FFFCF8" stroke-width="0.6" stroke-miterlimit="10"/>
    <path d="M232.554 24.6907L255.946 19.2874L260.424 25.7433L265.648 25.1258V22.5153H273.988V27.1187L250.975 30.9642L232.554 24.6907Z" fill="#C4D7EC" stroke="#FFFCF8" stroke-width="0.6" stroke-miterlimit="10"/>
    <path d="M281.078 22.2626V25.9958H285.809V27.6098H294.262L298.361 29.3501L303.711 26.6133H297.744V22.2626H281.078Z" fill="#C4D7EC" stroke="#FFFCF8" stroke-width="0.6" stroke-miterlimit="10"/>
    <path d="M313.048 31.4692L298.615 39.7918V43.2864H305.832V45.0267H325.235L328.479 44.0303L336.931 52.4791L319.268 62.3034H313.54V65.784H325.362L331.09 71.5101H342.533L349.188 64.8577L345.145 60.8157L349.497 56.465L356.209 63.1735L364.731 54.6545L353.106 48.9985L357.711 45.6442L340.666 32.0868L313.048 31.4692Z" fill="#C4D7EC" stroke="#FFFCF8" stroke-width="0.6" stroke-miterlimit="10"/>
    <path d="M270.308 34.9499C270.308 34.9499 272.611 40.3533 273.973 40.3533C275.335 40.3533 286.343 36.2551 286.343 36.2551L288.954 29.3501L270.294 34.9499H270.308Z" fill="#C4D7EC" stroke="#FFFCF8" stroke-width="0.6" stroke-miterlimit="10"/>
    <path d="M207.24 37.1816L210.975 40.3534H218.247L226.84 37.1816V38.7675L224.173 41.4341H221.8V42.4165H232.555L235.573 45.4199H222.361V47.076H227.584V48.0023L225.998 49.5882V50.5285H232.555L247.831 46.7953V48.1005L253.278 49.9671L258.375 49.4057L260.144 46.1357L263.963 46.7953L265.648 44.9287L259.4 41.2937L262.012 39.5253L263.219 35.2307L268.821 33.6448V31.7782L257.996 33.2659L254.542 38.8657L252.773 38.4026L253.896 35.6939L250.723 34.108L242.79 34.2904L238.494 30.0098H231.123L230.421 29.3081H219.188V31.9607L207.24 37.1816Z" fill="#C4D7EC" stroke="#FFFCF8" stroke-width="0.6" stroke-miterlimit="10"/>
    <path d="M288.224 65.6298V66.8508L283.183 68.3384V69.2647H287.76V70.4857H290.274L296.156 67.0332L300.355 69.8261L303.991 68.0578L301.38 65.6298L301.66 64.7035L296.536 60.5913H293.91L288.224 65.6298Z" fill="#C4D7EC" stroke="#FFFCF8" stroke-width="0.6" stroke-miterlimit="10"/>
    <path d="M289.445 73.3767V74.7662H292.52L297.097 72.254V70.9487L292.618 71.5101L289.445 73.3767Z" fill="#C4D7EC" stroke="#FFFCF8" stroke-width="0.6" stroke-miterlimit="10"/>
    <path d="M298.615 75.4258L300.735 73.3767H303.15V74.4012L300.889 76.6327L298.615 75.4258Z" fill="#C4D7EC" stroke="#FFFCF8" stroke-width="0.6" stroke-miterlimit="10"/>
    <path d="M322.005 124.014L324.013 126.021V126.905L327.973 128.491L330.682 128.028V126.259L325.824 124.014H322.005Z" fill="#C4D7EC" stroke="#FFFCF8" stroke-width="0.6" stroke-miterlimit="10"/>
    <path d="M336.185 132.323L349.664 118.835L354.662 117.305V118.611L348.639 124.617H351.391V126.26H357.555V127.747H355.687V129.614H358.762V133.529L355.084 137.207H352.514L354.676 135.045L353.216 133.572L349.341 137.445H346.168V135.579H348.4L349.945 134.049H346.912V133.249H336.185V132.323Z" fill="#C4D7EC" stroke="#FFFCF8" stroke-width="0.6" stroke-miterlimit="10"/>
    <path d="M317.611 137.206L321.542 140.013L324.477 138.61V137.824H321.051L319.394 136.842V135.859H317.85L317.611 137.206Z" fill="#C4D7EC" stroke="#FFFCF8" stroke-width="0.6" stroke-miterlimit="10"/>
    <path d="M353.484 108.07L352.74 105.586L345.032 101.236V98.9901L343.909 97.8673L346.029 95.2569L343.543 81.3345H341.676L334.459 88.5483H332.845L328.113 90.036L325.01 86.0501L329.236 80.1977L327.551 78.5135H323.508V75.2154L319.282 72.6049L316.417 73.9663H313.062L309.074 72.0997L305.339 74.2189V76.9557L302.349 79.3135V83.2853L296.564 89.0676L299.049 91.5517V95.4674L294.795 99.7199L283.071 104.407V107.018L280.712 114.232L276.851 117.46H273.117V115.846L271.558 114.288V111.242L274.731 112.365L275.475 110.246L272.611 108.379V105.264L275.84 103.144V101.657H267.135L265.577 100.099L259.287 95.9305L254.443 93.699H249.22L251.213 87.9729H247.352V85.8536L252.196 80.9976L266.012 71.426H271.979V69.0682H275.209L276.823 66.4577H282.299L288.393 63.342L288.954 61.8544L293.995 58.9913V57.251H298.6V58.7387L300.72 61.2228L301.97 58.7387L309.804 55.8756L312.051 53.1388V50.1495H315.912V46.6689H306.21V49.0267L294.388 53.995L293.026 52.6336L296.452 49.2091L294.332 47.0899L290.779 50.6266L288.982 47.6373V45.2794C288.982 45.2794 291.411 46.1496 291.411 45.2794V38.6831L295.511 35.5815H299.737L307.08 31.8483V30.8518H295.329L288.982 37.813L276.669 43.9602L281.892 46.7531V50.4863H273.987V45.2654H270.323L264.201 51.3845H251.48L246.44 48.9846L232.568 54.3879H218.078V51.3424H221.813V48.2267L205.947 44.6759L193.634 42.5988L164.331 48.2267L154.391 46.0513L111.371 83.3835L115.695 87.7062V90.3868L112.634 93.7411V103.257H117.113L118.601 100.646H120.651V105.502L117.661 108.856L119.528 113.516L117.661 118.372H113.561V122.849L119.907 129.193L119.626 129.754L125.874 132V128.084H218.429L231.767 132.786L235.601 131.256L236.162 132.28L242.326 128.463H247.549V131.915H250.062V136.673L251.185 141.15H260.705L262.011 142.455V144.968L259.539 147.438L258.009 145.908L256.226 147.676H254.836L250.09 152.42H249.585L248.644 155.69L253.713 153.922L260.059 151.957L262.025 148.603L271.628 147.676V148.687L278.536 144.378H290.85L301.085 134.147H306.154V136.673L304.23 140.645L305.325 143.227L313.427 141.894V143.634L306.336 147.732L308.077 151.339L317.035 146.245L326.99 143.382V142.133H329.728L331.96 139.522L330.345 138.526L331.469 136.659L329.98 135.663L325.628 139.522L325.501 141.136H320.77L316.291 138.526V134.792L322.385 129.445V126.961H316.782L301.352 133.305V131.312L312.795 126.582V123.972L315.28 121.488H337.295L345.509 118.26L349.735 117.881L354.341 115.018L357.078 109.179L353.47 107.93L353.484 108.07ZM188.27 63.1035L197.453 59.9457L191.064 57.1107L206.846 56.6335L201.693 59.7772L207.477 62.6263L199.502 63.5526L196.961 63.4262L190.896 64.4087L184.479 67.0051L188.2 63.9455L188.27 63.1035ZM213.964 73.3628L196.049 79.524H186.529V77.6574L195.669 74.7663L195.852 71.5102L201.075 74.7663L213.95 70.9488V73.3768L213.964 73.3628ZM221.237 118.133L218.247 122.975L217.404 121.67L219.173 118.681V115.691L218.12 114.316L217.39 105.572L221.813 103.944L221.209 118.105L221.237 118.133Z" fill="#C4D7EC" stroke="#FFFCF8" stroke-width="0.6" stroke-miterlimit="10"/>
    <path d="M111.146 83.3137L111.356 83.5242L154.376 46.206L121.774 39.0483L87.4454 49.3077H79.4143L76.0586 50.8094L80.7201 57.1531V59.7635H72.8855V56.7741H65.9776L57.3989 59.7635V65.9107L71.9448 63.8616V67.9597L42.8389 76.17V78.9769L38.5426 80.2681V83.44H45.647V85.5031L41.4349 89.6994H44.3272H51.9793L47.1353 92.5906L1.04053 107.327V108.997L27.3523 102.653V104.155H31.4521V100.787L53.285 93.3344L67.2834 87.5521V85.1241L80.1585 79.9032V81.5874L73.6296 84.9417V86.6118L84.0757 83.2575H89.4954L92.3877 80.3664H97.695L100.643 83.3137H111.146Z" fill="#C4D7EC" stroke="#FFFCF8" stroke-width="0.6" stroke-miterlimit="10"/>
    <path d="M306.14 134.273H301.071L290.836 144.505H278.522L271.615 148.813V151.157H262.011V153.95L249.038 160.294H244.376V157.318L248.63 155.817L249.585 152.561H249.262V148.659L246.58 151.34V150.371L250.091 146.863V143.396L247.83 141.136H246.103L242.509 144.715L241.694 143.901L236.022 149.571V152.701L231.403 157.318H228.609V151.536L239.434 140.715H249.88V138.568H247.83H240.74L239.055 136.884V134.456L230.378 138.189H228.707V136.701L224.13 137.445V135.958L231.782 132.912L218.429 128.21H125.875V132.126L119.627 129.895L115.429 138.105L97.8921 163.101V189.766L106.007 197.878V198.159H116.734L128.683 203.759H139.129V200.966H146.037L150.544 205.471V210.411L153.675 213.541L157.045 210.159H162.141L164.823 212.839V224.586L172.714 227.197L172.84 226.832V220.362L178.189 215.015L191.753 209.415L198.969 212.896L202.943 210.903L204.936 212.404L206.186 211.282L204.192 208.797L208.053 207.296H218.247L220.423 209.485H223.105L224.186 208.39H226.587L229.83 211.646V214.888L226.966 217.752V222.846L231.431 230.06H233.677L236.415 222.102V214.271L233.93 207.801L240.262 198.721H241.765L248.476 192.012H252.084L255.075 189.023H259.175V185.416L261.548 183.058V174.342L263.289 172.602L264.651 174.23L263.527 176.335L264.651 176.841L269.129 172.237L268.764 169.374H270.632L275.967 164.027V161.416L288.421 159.185V155.578H289.783V152.715L294.88 148.982L304.343 145.501V143.508L305.312 143.354L304.216 140.771L306.14 136.8V134.273Z" fill="#4175B9" stroke="#FFFCF8" stroke-width="0.6" stroke-miterlimit="10"/>
    <path d="M261.351 252.81L258.922 251.687L256.029 252.81L255.931 253.652L259.104 253.933L258.922 257.666H251.55V259.392L253.951 261.792L255.833 259.392H260.873L261.182 259.701L263.232 252.375L261.336 252.824L261.351 252.81Z" fill="#C4D7EC" stroke="#FFFCF8" stroke-width="0.6" stroke-miterlimit="10"/>
    <path d="M273.482 255.799H270.786L266.111 251.701L263.247 252.375L261.197 259.701L263.064 261.568H264.44V258.592H266.49V259.729H269.284V258.508L273.482 259.729L275.167 257.666L273.482 255.799Z" fill="#C4D7EC" stroke="#FFFCF8" stroke-width="0.6" stroke-miterlimit="10"/>
    <path d="M194.392 275.139L199.503 270.002H197.228V268.95L196.274 269.539H194.926L196.189 261.104H187.835V263.715L190.728 266.606V268.852H184.746C184.746 268.852 183.37 272.374 182.486 274.676L189.885 279.293H190.25L194.392 275.125V275.139Z" fill="#C4D7EC" stroke="#FFFCF8" stroke-width="0.6" stroke-miterlimit="10"/>
    <path d="M190.728 268.852V266.606L187.835 263.715V261.105H196.695L200.795 257.006L202.873 259.084L204.684 254.438V251.196L208.04 247.842L208.166 245.105H201.567L193.48 246.719V252.066L189.127 256.543H183.778V258.157L177.305 259.406L176.182 258.284H172.321L168.095 244.979V239.884L172.686 227.197L164.809 224.586V212.839L162.127 210.159H157.031L153.661 213.527L150.53 210.397V205.457L146.023 200.952H139.115V203.745H128.669L116.721 198.145H105.994V209.71L111.736 215.45V218.664H107.019V220.53L114.853 228.362L112.242 230.972L120.273 238.986V240.852H124.19V234.691L120.371 230.874V225.372L115.99 213.808L113 208.587V201.682L121.213 205.597V212.306L128.866 223.309L126.998 225.737L139.129 240.852V249.428H136.138V252.038L143.131 259.027H149.379L167.673 270.69L174.764 266.957L182.416 274.606L182.486 274.648C183.371 272.346 184.747 268.824 184.747 268.824H190.728V268.852Z" fill="#C4D7EC" stroke="#FFFCF8" stroke-width="0.6" stroke-miterlimit="10"/>
    <path d="M196.694 261.118H196.189L194.925 269.553H196.273L197.228 268.964V267.743L200.963 264.01L202.872 259.083L200.808 257.006L196.694 261.118Z" fill="#C4D7EC" stroke="#FFFCF8" stroke-width="0.6" stroke-miterlimit="10"/>
    <path d="M213.641 291.363V285.399L215.761 284.402V278.059L217.319 276.501V274.452H210.51L203.419 278.564V282.339H200.148V284.15L206.382 290.381L213.781 291.504L213.641 291.363Z" fill="#C4D7EC" stroke="#FFFCF8" stroke-width="0.6" stroke-miterlimit="10"/>
    <path d="M194.391 275.139L190.25 279.307H199.586V277.82L194.391 275.153V275.139Z" fill="#C4D7EC" stroke="#FFFCF8" stroke-width="0.6" stroke-miterlimit="10"/>
    <path d="M203.42 278.564L210.511 274.451H217.32V271.715L215.607 270.002H199.503L194.392 275.139L199.587 277.806V279.293H200.149V282.325H203.42V278.55V278.564Z" fill="#C4D7EC" stroke="#FFFCF8" stroke-width="0.6" stroke-miterlimit="10"/>
    <path d="M213.782 291.504L206.382 290.381L206.593 290.591V295.532L212.321 301.272V302.802L215.663 306.142V303.433H216.772L217.488 295.153L213.782 291.504Z" fill="#C4D7EC" stroke="#FFFCF8" stroke-width="0.6" stroke-miterlimit="10"/>
    <path d="M238.337 301.005L234.111 296.766L229.45 296.472L222.724 300.317L217.487 295.152L216.771 303.433H219.86V306.141H227.203V302.436L230.25 299.391L233.62 302.745L232.314 304.05L235.136 306.885L238.337 303.742V301.005Z" fill="#C4D7EC" stroke="#FFFCF8" stroke-width="0.6" stroke-miterlimit="10"/>
    <path d="M228.328 357.017L230.449 359.754L233.551 351.052L243.253 346.954V338.491L229.606 329.509L228.707 330.407V332.274L225.464 333.776V337.495L221.603 341.355V347.951L225.282 351.614V352.666L224.285 353.663L224.72 356.905L228.328 357.017Z" fill="#C4D7EC" stroke="#FFFCF8" stroke-width="0.6" stroke-miterlimit="10"/>
    <path d="M252.491 348.414L259.862 347.193L263.597 349.341L261.547 354.098L264.875 354.814L266.77 342.169L263.414 338.801V335.348H267.416V333.215H264.804V330.408H275.166L272.92 325.748V310.731H266.77L263.822 307.798H256.689L254.737 298.704H252.673L255.383 290.872L258.43 289.16L258.304 288.753L262.418 285.89L260.677 283.406L253.081 289.37H247.731L243.94 293.174V296.584L238.928 301.595L238.338 301.005V303.742L235.137 306.886L237.285 309.019V313.37L236.288 314.366V322.829L229.605 329.51L243.252 338.492V339.587L251.466 343.558L252.491 348.414Z" fill="#C4D7EC" stroke="#FFFCF8" stroke-width="0.6" stroke-miterlimit="10"/>
    <path d="M269.312 404.398L270.87 398.686L271.123 391.346L267.641 384.876H263.288V379.782H256.198L248.04 371.628L252.716 366.098V359.754L261.294 356.274H264.65L264.875 354.814L261.547 354.098L263.597 349.341L259.862 347.193L252.491 348.414L251.466 343.558L243.252 339.586V346.955L233.551 351.053L230.448 359.754L228.327 357.017L224.719 356.905L224.284 353.663L221.265 356.681V359.389L224.115 362.224V363.361H222.108V364.863L227.836 368.091L230.686 373.691L243.126 395.571V398.925L262.291 411.486V413.97L267.248 417.002L270.744 413.605L269.747 411.865L272.499 407.879L269.312 404.398Z" fill="#C4D7EC" stroke="#FFFCF8" stroke-width="0.6" stroke-miterlimit="10"/>
    <path d="M300.917 305.735V307.279H298.123V312.752L300.86 315.489V316.008L302.601 315.769L303.991 321.089L301.562 323.517V327.895H303.093V330.225L306.701 332.836L312.247 329.846V323.46L310.057 321.271V316.331H313.328V311.77L304.09 301.566H303.093V303.545L300.917 305.735Z" fill="#C4D7EC" stroke="#FFFCF8" stroke-width="0.6" stroke-miterlimit="10"/>
    <path d="M310.056 316.331V321.271L312.246 323.46V329.846L316.964 330.099V327.867L320.952 326.801L322.566 328.232L325.079 324.064V321.65L323.437 320.345V315.433L325.304 314.927L326.259 313.047L323.24 312.008H313.538L313.328 311.77V316.331H310.056Z" fill="#C4D7EC" stroke="#FFFCF8" stroke-width="0.6" stroke-miterlimit="10"/>
    <path d="M282.874 336.443L289.277 330.043V327.559H286.427V323.194L284.306 320.71H292.029L300.86 318.226V316.008V315.489L298.122 312.752V307.279H300.916V305.735L303.093 303.545V301.567H299.611V296.963L293.826 291.181H288.168L285.767 293.567H281.695L280.221 292.093H272.372V289.244H267.64L266.517 285.525H264.903V288.5L260.803 291.742L262.909 294.479L262.291 298.703L260.424 299.321L257.686 295.588L259.3 292.233L258.43 289.16L255.383 290.872L252.673 298.703H254.737L256.689 307.798H263.821L266.77 310.731H272.92V325.748L275.166 330.408H274.857V336.443H282.874Z" fill="#C4D7EC" stroke="#FFFCF8" stroke-width="0.6" stroke-miterlimit="10"/>
    <path d="M325.796 327.924L329.714 328.232L334.67 319.194L329.714 314.24L326.26 313.047L325.305 314.928L323.437 315.433V320.345L325.08 321.65V324.064L322.974 327.545L324.799 328.794L325.796 327.924Z" fill="#C4D7EC" stroke="#FFFCF8" stroke-width="0.6" stroke-miterlimit="10"/>
    <path d="M396.153 359.754H390.551L379.908 349.13H370.894L365.671 347.951L360.94 351.432V346.702L350.241 340.864L346.885 344.218H344.639L347.264 339.123V337.621H339.795L337.183 340.864L335.695 339.741L340.539 333.397V329.538H338.054L335.807 320.345L335.077 319.601L334.67 319.194L329.714 328.232L325.797 327.924L324.8 328.794L322.974 327.545L322.567 328.232L320.953 326.801L316.965 327.867V330.099L312.247 329.846L306.702 332.836L303.093 330.225V327.895H301.563V323.517L303.992 321.089L302.602 315.77L300.861 316.008V318.226L292.029 320.71H284.307L286.427 323.194V327.559H289.277V330.043L282.875 336.443H274.858V330.408H264.805V333.215H267.416V335.348H263.415V338.8L266.77 342.169L264.65 356.274H261.295L252.716 359.754V366.098L248.041 371.627L256.198 379.782H263.288V384.876H267.641L267.88 385.339L271.867 385.69L272.864 383.824H274.296L278.396 379.711H283.254V387.487L288.252 392.497H291.468L296.045 397.086H300.482L302.307 398.911V408.132H311.798V412.553H313.918L315.589 416.272L313.413 423.121L315.589 428.271V432.819H323.438L325.74 441.464H330.093V448.173H333.449V454.39L321.261 466.572L339.668 478.515L340.82 484.382L342.631 482.585V476.158L348.051 470.726V465.463L353.498 460.018V456.748L351.813 455.064V447.176H353.498L364.38 436.313H375.5V434.124H378.49L382.717 422.18V416.216H383.952V393.578H386.072L390.804 384.497H393.415L398.821 379.094V367.347L396.153 359.754Z" fill="#C4D7EC" stroke="#FFFCF8" stroke-width="0.6" stroke-miterlimit="10"/>
    <path d="M274.985 421.436L275.448 427.878L278.804 436.636H281.415H282.44L285.515 432.257L298.306 433.38V422.461L309.875 420.594L313.61 422.517L315.59 416.272L313.919 412.553H311.799V408.132H302.308V398.911L300.482 397.086H296.046L291.468 392.497H288.253L283.255 387.487V379.711H278.397L274.297 383.824H272.865L271.868 385.69L267.88 385.339L271.124 391.346L270.871 398.686L269.312 404.398L272.5 407.879L269.748 411.865L270.745 413.605L269.958 414.377L272.5 420.131L274.985 421.436Z" fill="#C4D7EC" stroke="#FFFCF8" stroke-width="0.6" stroke-miterlimit="10"/>
    <path d="M329.404 489.027H336.185L340.818 484.382L339.667 478.515L322.496 467.386L320.783 469.379L323.24 483.75L323.675 483.301L329.404 489.027Z" fill="#C4D7EC" stroke="#FFFCF8" stroke-width="0.6" stroke-miterlimit="10"/>
    <path d="M318.777 446.432L315.59 455.26L325.741 456.256L329.841 452.411L330.445 448.172H330.094V441.464H325.741L323.439 432.818H315.59V428.271L313.414 423.121L313.61 422.517L309.875 420.594L298.306 422.461V433.324L303.964 439.597L318.777 446.432Z" fill="#C4D7EC" stroke="#FFFCF8" stroke-width="0.6" stroke-miterlimit="10"/>
    <path d="M313.23 563.58H310.24L309.776 561.432L300.341 560.45L298.291 554.808L291.383 550.513L293.433 545.854L291.749 528.324H288.758L281.485 514.711V484.396L276.262 474.417V465.463L279.056 455.021V445.506L282.412 442.152V436.65H278.775L275.419 427.892L274.956 421.451L272.471 420.145L269.944 414.391L267.234 417.03L267.374 417.114L269.607 429.057V462.137L271.53 464.074V467.119L270 468.635V470.965L273.58 478.67C273.58 478.67 274.072 495.582 273.58 496.073C273.089 496.578 271.586 496.073 271.586 496.073V498.192L275.321 506.402V514.613L277.062 516.353V524.437H279.926V517.097L281.288 518.093L284.518 533.391H282.903L281.415 529.167L279.182 528.914L280.544 534.135L278.803 537.742L280.544 539.987H284.897V543.342H282.033L287.761 555.776H290.246V558.513L296.34 565.095L301.689 568.955L317.162 573.937L317.962 571.902L313.202 563.608L313.23 563.58Z" fill="#4175B9" stroke="#FFFCF8" stroke-width="0.6" stroke-miterlimit="10"/>
    <path d="M333.449 448.173H330.445L329.841 452.411L325.741 456.257L315.59 455.26L318.777 446.432L303.964 439.597L298.306 433.324V433.38L285.515 432.257L282.44 436.636V442.138L279.085 445.506V455.008L276.291 465.463V474.417L281.514 484.382V514.697L288.787 528.311H291.777L293.448 545.854L291.398 550.513L298.306 554.808L300.356 560.45L309.777 561.432L310.254 563.58H313.231L317.991 571.874L317.19 573.909L321.009 575.144L328.97 572.899V571.158H325.853L313.413 562.695H310.928V561.208L311.925 560.211L308.19 553.994V552.38H310.928V547.903L314.972 543.861V540.072H310.058L305.958 535.973V532.114H310.184V523.286H312.669V518.935H308.317L304.526 515.132V512.465L312.304 515.328L315.534 512.086V507.483L313.484 505.434V503.006L316.306 505.841L329.588 501.645V498.908L331.147 497.35V493.687H327.721V489.954L322.385 484.607L323.242 483.75L320.785 469.379L322.498 467.386L321.262 466.572L333.449 454.39V448.173Z" fill="#C4D7EC" stroke="#FFFCF8" stroke-width="0.6" stroke-miterlimit="10"/>
    <path d="M181.587 332.695L183.062 330.562L184.943 332.176L183.258 333.748L181.587 332.695Z" fill="#C4D7EC" stroke="#FFFCF8" stroke-width="0.6" stroke-miterlimit="10"/>
    <path d="M184.942 333.243L186.992 338.941L185.097 340.527L182.064 340.709L181.39 337.888L184.184 335.965L183.903 333.972L184.942 333.243Z" fill="#C4D7EC" stroke="#FFFCF8" stroke-width="0.6" stroke-miterlimit="10"/>
    <path d="M186.066 333.088L186.529 334.59L188.369 333.748L187.849 331.923L186.066 333.088Z" fill="#C4D7EC" stroke="#FFFCF8" stroke-width="0.6" stroke-miterlimit="10"/>
    <path d="M188.187 335.446L187.751 336.737L188.734 336.976L189.226 335.601L188.187 335.446Z" fill="#C4D7EC" stroke="#FFFCF8" stroke-width="0.6" stroke-miterlimit="10"/>
    </svg>